<mxfile host="Electron" modified="2023-10-07T00:37:37.061Z" agent="Mozilla/5.0 (Windows NT 10.0; Win64; x64) AppleWebKit/537.36 (KHTML, like Gecko) draw.io/22.0.2 Chrome/114.0.5735.289 Electron/25.8.4 Safari/537.36" etag="3Cxw8YAz8ZDLibTNjZF5" version="22.0.2" type="device">
  <diagram name="Page-1" id="J1zI7mLQBGpslLOCHgWI">
    <mxGraphModel dx="2228" dy="1507" grid="1" gridSize="10" guides="1" tooltips="1" connect="1" arrows="1" fold="1" page="1" pageScale="1" pageWidth="827" pageHeight="1169" math="0" shadow="0">
      <root>
        <mxCell id="0" />
        <mxCell id="1" parent="0" />
        <mxCell id="EnHr0ATX-wRnSWAY3tVp-86" style="edgeStyle=none;rounded=0;orthogonalLoop=1;jettySize=auto;html=1;exitX=0.5;exitY=0;exitDx=0;exitDy=0;entryX=0;entryY=1;entryDx=0;entryDy=0;endArrow=none;endFill=0;" parent="1" source="doNa7AhgK9Vixs0M9UTE-1" target="EnHr0ATX-wRnSWAY3tVp-72" edge="1">
          <mxGeometry relative="1" as="geometry" />
        </mxCell>
        <mxCell id="EnHr0ATX-wRnSWAY3tVp-87" style="edgeStyle=none;rounded=0;orthogonalLoop=1;jettySize=auto;html=1;exitX=0.5;exitY=0;exitDx=0;exitDy=0;entryX=0;entryY=0.5;entryDx=0;entryDy=0;endArrow=none;endFill=0;" parent="1" source="doNa7AhgK9Vixs0M9UTE-1" target="EnHr0ATX-wRnSWAY3tVp-73" edge="1">
          <mxGeometry relative="1" as="geometry" />
        </mxCell>
        <mxCell id="doNa7AhgK9Vixs0M9UTE-1" value="Pessoa" style="whiteSpace=wrap;html=1;align=center;fillColor=#dae8fc;strokeColor=#6c8ebf;" parent="1" vertex="1">
          <mxGeometry x="-477" y="85" width="60" height="30" as="geometry" />
        </mxCell>
        <mxCell id="doNa7AhgK9Vixs0M9UTE-57" style="edgeStyle=orthogonalEdgeStyle;rounded=0;orthogonalLoop=1;jettySize=auto;html=1;exitX=1;exitY=0.5;exitDx=0;exitDy=0;entryX=0.5;entryY=1;entryDx=0;entryDy=0;endArrow=none;endFill=0;" parent="1" source="doNa7AhgK9Vixs0M9UTE-32" target="doNa7AhgK9Vixs0M9UTE-1" edge="1">
          <mxGeometry relative="1" as="geometry" />
        </mxCell>
        <mxCell id="doNa7AhgK9Vixs0M9UTE-58" style="edgeStyle=orthogonalEdgeStyle;rounded=0;orthogonalLoop=1;jettySize=auto;html=1;exitX=0;exitY=0.5;exitDx=0;exitDy=0;entryX=0;entryY=0.5;entryDx=0;entryDy=0;endArrow=none;endFill=0;" parent="1" source="doNa7AhgK9Vixs0M9UTE-32" target="doNa7AhgK9Vixs0M9UTE-33" edge="1">
          <mxGeometry relative="1" as="geometry" />
        </mxCell>
        <mxCell id="EnHr0ATX-wRnSWAY3tVp-11" style="edgeStyle=orthogonalEdgeStyle;rounded=0;orthogonalLoop=1;jettySize=auto;html=1;exitX=0;exitY=0.5;exitDx=0;exitDy=0;entryX=0.5;entryY=0;entryDx=0;entryDy=0;endArrow=none;endFill=0;" parent="1" source="doNa7AhgK9Vixs0M9UTE-32" target="doNa7AhgK9Vixs0M9UTE-56" edge="1">
          <mxGeometry relative="1" as="geometry" />
        </mxCell>
        <mxCell id="doNa7AhgK9Vixs0M9UTE-32" value="" style="triangle;whiteSpace=wrap;html=1;rotation=-90;fillColor=#f8cecc;strokeColor=#b85450;" parent="1" vertex="1">
          <mxGeometry x="-462" y="160" width="30" height="40" as="geometry" />
        </mxCell>
        <mxCell id="EnHr0ATX-wRnSWAY3tVp-16" style="edgeStyle=orthogonalEdgeStyle;rounded=0;orthogonalLoop=1;jettySize=auto;html=1;exitX=0.5;exitY=1;exitDx=0;exitDy=0;entryX=0.5;entryY=0;entryDx=0;entryDy=0;endArrow=none;endFill=0;" parent="1" source="doNa7AhgK9Vixs0M9UTE-33" target="doNa7AhgK9Vixs0M9UTE-60" edge="1">
          <mxGeometry relative="1" as="geometry" />
        </mxCell>
        <mxCell id="EnHr0ATX-wRnSWAY3tVp-23" style="edgeStyle=orthogonalEdgeStyle;rounded=0;orthogonalLoop=1;jettySize=auto;html=1;exitX=1;exitY=0.75;exitDx=0;exitDy=0;entryX=1;entryY=0.5;entryDx=0;entryDy=0;endArrow=none;endFill=0;" parent="1" edge="1">
          <mxGeometry relative="1" as="geometry">
            <mxPoint x="-93.5" y="307" as="sourcePoint" />
            <mxPoint x="-221" y="649.5" as="targetPoint" />
            <Array as="points">
              <mxPoint x="-58" y="309.5" />
              <mxPoint x="-58" y="649.5" />
            </Array>
          </mxGeometry>
        </mxCell>
        <mxCell id="EnHr0ATX-wRnSWAY3tVp-25" style="edgeStyle=orthogonalEdgeStyle;rounded=0;orthogonalLoop=1;jettySize=auto;html=1;exitX=1;exitY=0.25;exitDx=0;exitDy=0;entryX=1;entryY=0.5;entryDx=0;entryDy=0;endArrow=none;endFill=0;" parent="1" source="doNa7AhgK9Vixs0M9UTE-33" target="doNa7AhgK9Vixs0M9UTE-106" edge="1">
          <mxGeometry relative="1" as="geometry">
            <Array as="points">
              <mxPoint x="-82" y="290" />
              <mxPoint x="-30" y="290" />
              <mxPoint x="-30" y="745" />
            </Array>
          </mxGeometry>
        </mxCell>
        <mxCell id="EnHr0ATX-wRnSWAY3tVp-163" style="edgeStyle=none;rounded=0;orthogonalLoop=1;jettySize=auto;html=1;exitX=0.5;exitY=0;exitDx=0;exitDy=0;entryX=0.924;entryY=0.693;entryDx=0;entryDy=0;entryPerimeter=0;endArrow=none;endFill=0;" parent="1" source="doNa7AhgK9Vixs0M9UTE-33" target="EnHr0ATX-wRnSWAY3tVp-145" edge="1">
          <mxGeometry relative="1" as="geometry" />
        </mxCell>
        <mxCell id="EnHr0ATX-wRnSWAY3tVp-164" style="edgeStyle=none;rounded=0;orthogonalLoop=1;jettySize=auto;html=1;exitX=0.5;exitY=0;exitDx=0;exitDy=0;entryX=1;entryY=1;entryDx=0;entryDy=0;endArrow=none;endFill=0;" parent="1" source="doNa7AhgK9Vixs0M9UTE-33" target="EnHr0ATX-wRnSWAY3tVp-146" edge="1">
          <mxGeometry relative="1" as="geometry" />
        </mxCell>
        <mxCell id="EnHr0ATX-wRnSWAY3tVp-165" style="edgeStyle=none;rounded=0;orthogonalLoop=1;jettySize=auto;html=1;exitX=0.5;exitY=0;exitDx=0;exitDy=0;entryX=0.706;entryY=0.944;entryDx=0;entryDy=0;entryPerimeter=0;endArrow=none;endFill=0;" parent="1" source="doNa7AhgK9Vixs0M9UTE-33" target="EnHr0ATX-wRnSWAY3tVp-147" edge="1">
          <mxGeometry relative="1" as="geometry" />
        </mxCell>
        <mxCell id="EnHr0ATX-wRnSWAY3tVp-166" style="edgeStyle=none;rounded=0;orthogonalLoop=1;jettySize=auto;html=1;exitX=0.5;exitY=0;exitDx=0;exitDy=0;endArrow=none;endFill=0;" parent="1" source="doNa7AhgK9Vixs0M9UTE-33" target="EnHr0ATX-wRnSWAY3tVp-150" edge="1">
          <mxGeometry relative="1" as="geometry" />
        </mxCell>
        <mxCell id="EnHr0ATX-wRnSWAY3tVp-167" style="edgeStyle=none;rounded=0;orthogonalLoop=1;jettySize=auto;html=1;exitX=1;exitY=0.5;exitDx=0;exitDy=0;entryX=0;entryY=0.5;entryDx=0;entryDy=0;endArrow=none;endFill=0;" parent="1" source="doNa7AhgK9Vixs0M9UTE-1" target="EnHr0ATX-wRnSWAY3tVp-159" edge="1">
          <mxGeometry relative="1" as="geometry" />
        </mxCell>
        <mxCell id="EnHr0ATX-wRnSWAY3tVp-168" style="edgeStyle=none;rounded=0;orthogonalLoop=1;jettySize=auto;html=1;exitX=1;exitY=0.5;exitDx=0;exitDy=0;entryX=0;entryY=0.5;entryDx=0;entryDy=0;endArrow=none;endFill=0;" parent="1" source="doNa7AhgK9Vixs0M9UTE-1" target="EnHr0ATX-wRnSWAY3tVp-156" edge="1">
          <mxGeometry relative="1" as="geometry" />
        </mxCell>
        <mxCell id="EnHr0ATX-wRnSWAY3tVp-169" style="edgeStyle=none;rounded=0;orthogonalLoop=1;jettySize=auto;html=1;exitX=0.5;exitY=0;exitDx=0;exitDy=0;entryX=0;entryY=0.5;entryDx=0;entryDy=0;endArrow=none;endFill=0;" parent="1" source="doNa7AhgK9Vixs0M9UTE-33" target="EnHr0ATX-wRnSWAY3tVp-160" edge="1">
          <mxGeometry relative="1" as="geometry" />
        </mxCell>
        <mxCell id="EnHr0ATX-wRnSWAY3tVp-170" style="edgeStyle=none;rounded=0;orthogonalLoop=1;jettySize=auto;html=1;exitX=0.5;exitY=0;exitDx=0;exitDy=0;entryX=-0.004;entryY=0.384;entryDx=0;entryDy=0;entryPerimeter=0;endArrow=none;endFill=0;" parent="1" source="doNa7AhgK9Vixs0M9UTE-33" target="EnHr0ATX-wRnSWAY3tVp-161" edge="1">
          <mxGeometry relative="1" as="geometry" />
        </mxCell>
        <mxCell id="doNa7AhgK9Vixs0M9UTE-33" value="Paciente" style="whiteSpace=wrap;html=1;align=center;fillColor=#dae8fc;strokeColor=#6c8ebf;" parent="1" vertex="1">
          <mxGeometry x="-152.5" y="285" width="70" height="30" as="geometry" />
        </mxCell>
        <mxCell id="EnHr0ATX-wRnSWAY3tVp-95" style="edgeStyle=none;rounded=0;orthogonalLoop=1;jettySize=auto;html=1;exitX=0;exitY=0.5;exitDx=0;exitDy=0;entryX=0.5;entryY=0;entryDx=0;entryDy=0;endArrow=none;endFill=0;" parent="1" source="doNa7AhgK9Vixs0M9UTE-56" target="EnHr0ATX-wRnSWAY3tVp-88" edge="1">
          <mxGeometry relative="1" as="geometry" />
        </mxCell>
        <mxCell id="EnHr0ATX-wRnSWAY3tVp-96" style="edgeStyle=none;rounded=0;orthogonalLoop=1;jettySize=auto;html=1;exitX=0;exitY=0.5;exitDx=0;exitDy=0;entryX=1;entryY=0.5;entryDx=0;entryDy=0;endArrow=none;endFill=0;" parent="1" source="doNa7AhgK9Vixs0M9UTE-56" target="EnHr0ATX-wRnSWAY3tVp-94" edge="1">
          <mxGeometry relative="1" as="geometry" />
        </mxCell>
        <mxCell id="EnHr0ATX-wRnSWAY3tVp-97" style="edgeStyle=none;rounded=0;orthogonalLoop=1;jettySize=auto;html=1;exitX=0;exitY=0.5;exitDx=0;exitDy=0;entryX=1;entryY=0.5;entryDx=0;entryDy=0;endArrow=none;endFill=0;" parent="1" source="doNa7AhgK9Vixs0M9UTE-56" target="EnHr0ATX-wRnSWAY3tVp-93" edge="1">
          <mxGeometry relative="1" as="geometry" />
        </mxCell>
        <mxCell id="EnHr0ATX-wRnSWAY3tVp-98" style="edgeStyle=none;rounded=0;orthogonalLoop=1;jettySize=auto;html=1;exitX=0;exitY=0.5;exitDx=0;exitDy=0;entryX=1;entryY=0.5;entryDx=0;entryDy=0;endArrow=none;endFill=0;" parent="1" source="doNa7AhgK9Vixs0M9UTE-56" target="EnHr0ATX-wRnSWAY3tVp-92" edge="1">
          <mxGeometry relative="1" as="geometry" />
        </mxCell>
        <mxCell id="EnHr0ATX-wRnSWAY3tVp-99" style="edgeStyle=none;rounded=0;orthogonalLoop=1;jettySize=auto;html=1;exitX=0;exitY=0.5;exitDx=0;exitDy=0;entryX=1;entryY=1;entryDx=0;entryDy=0;endArrow=none;endFill=0;" parent="1" source="doNa7AhgK9Vixs0M9UTE-56" target="EnHr0ATX-wRnSWAY3tVp-91" edge="1">
          <mxGeometry relative="1" as="geometry" />
        </mxCell>
        <mxCell id="EnHr0ATX-wRnSWAY3tVp-100" style="edgeStyle=none;rounded=0;orthogonalLoop=1;jettySize=auto;html=1;exitX=0;exitY=0.5;exitDx=0;exitDy=0;endArrow=none;endFill=0;entryX=1;entryY=1;entryDx=0;entryDy=0;" parent="1" source="doNa7AhgK9Vixs0M9UTE-56" target="EnHr0ATX-wRnSWAY3tVp-90" edge="1">
          <mxGeometry relative="1" as="geometry">
            <mxPoint x="-610" y="183" as="targetPoint" />
          </mxGeometry>
        </mxCell>
        <mxCell id="EnHr0ATX-wRnSWAY3tVp-101" style="edgeStyle=none;rounded=0;orthogonalLoop=1;jettySize=auto;html=1;exitX=0;exitY=0.5;exitDx=0;exitDy=0;entryX=0.5;entryY=1;entryDx=0;entryDy=0;endArrow=none;endFill=0;" parent="1" source="doNa7AhgK9Vixs0M9UTE-56" target="EnHr0ATX-wRnSWAY3tVp-89" edge="1">
          <mxGeometry relative="1" as="geometry" />
        </mxCell>
        <mxCell id="EnHr0ATX-wRnSWAY3tVp-138" style="edgeStyle=none;rounded=0;orthogonalLoop=1;jettySize=auto;html=1;exitX=0.5;exitY=1;exitDx=0;exitDy=0;entryX=1;entryY=0.5;entryDx=0;entryDy=0;endArrow=none;endFill=0;" parent="1" source="doNa7AhgK9Vixs0M9UTE-56" target="EnHr0ATX-wRnSWAY3tVp-7" edge="1">
          <mxGeometry relative="1" as="geometry" />
        </mxCell>
        <mxCell id="doNa7AhgK9Vixs0M9UTE-56" value="Profissional" style="whiteSpace=wrap;html=1;align=center;fillColor=#dae8fc;strokeColor=#6c8ebf;" parent="1" vertex="1">
          <mxGeometry x="-567" y="285" width="90" height="30" as="geometry" />
        </mxCell>
        <mxCell id="EnHr0ATX-wRnSWAY3tVp-17" style="edgeStyle=orthogonalEdgeStyle;rounded=0;orthogonalLoop=1;jettySize=auto;html=1;exitX=0.5;exitY=1;exitDx=0;exitDy=0;entryX=0.5;entryY=0;entryDx=0;entryDy=0;endArrow=none;endFill=0;" parent="1" source="doNa7AhgK9Vixs0M9UTE-60" target="doNa7AhgK9Vixs0M9UTE-63" edge="1">
          <mxGeometry relative="1" as="geometry" />
        </mxCell>
        <mxCell id="doNa7AhgK9Vixs0M9UTE-60" value="Marca" style="shape=rhombus;perimeter=rhombusPerimeter;whiteSpace=wrap;html=1;align=center;fillColor=#ffe6cc;strokeColor=#d79b00;fixedWidth=0;" parent="1" vertex="1">
          <mxGeometry x="-147" y="368" width="60" height="30" as="geometry" />
        </mxCell>
        <mxCell id="nN6z9SuCUhu9jbKAvrdL-11" style="edgeStyle=orthogonalEdgeStyle;rounded=0;orthogonalLoop=1;jettySize=auto;html=1;exitX=0.5;exitY=1;exitDx=0;exitDy=0;entryX=0.5;entryY=0;entryDx=0;entryDy=0;endArrow=none;endFill=0;" parent="1" source="doNa7AhgK9Vixs0M9UTE-62" target="nN6z9SuCUhu9jbKAvrdL-8" edge="1">
          <mxGeometry relative="1" as="geometry" />
        </mxCell>
        <mxCell id="doNa7AhgK9Vixs0M9UTE-62" value="Prontuário médico" style="whiteSpace=wrap;html=1;align=center;fillColor=#dae8fc;strokeColor=#6c8ebf;" parent="1" vertex="1">
          <mxGeometry x="-480" y="834" width="120" height="30" as="geometry" />
        </mxCell>
        <mxCell id="EnHr0ATX-wRnSWAY3tVp-19" style="edgeStyle=orthogonalEdgeStyle;rounded=0;orthogonalLoop=1;jettySize=auto;html=1;exitX=0;exitY=0.5;exitDx=0;exitDy=0;entryX=1;entryY=0.5;entryDx=0;entryDy=0;endArrow=none;endFill=0;" parent="1" source="doNa7AhgK9Vixs0M9UTE-63" target="doNa7AhgK9Vixs0M9UTE-83" edge="1">
          <mxGeometry relative="1" as="geometry" />
        </mxCell>
        <mxCell id="EnHr0ATX-wRnSWAY3tVp-203" style="edgeStyle=none;rounded=0;orthogonalLoop=1;jettySize=auto;html=1;exitX=0;exitY=0;exitDx=0;exitDy=0;endArrow=none;endFill=0;" parent="1" source="doNa7AhgK9Vixs0M9UTE-63" target="EnHr0ATX-wRnSWAY3tVp-198" edge="1">
          <mxGeometry relative="1" as="geometry" />
        </mxCell>
        <mxCell id="EnHr0ATX-wRnSWAY3tVp-204" style="edgeStyle=none;rounded=0;orthogonalLoop=1;jettySize=auto;html=1;exitX=0.25;exitY=0;exitDx=0;exitDy=0;endArrow=none;endFill=0;" parent="1" source="doNa7AhgK9Vixs0M9UTE-63" target="EnHr0ATX-wRnSWAY3tVp-202" edge="1">
          <mxGeometry relative="1" as="geometry" />
        </mxCell>
        <mxCell id="doNa7AhgK9Vixs0M9UTE-63" value="Consulta" style="whiteSpace=wrap;html=1;align=center;fillColor=#dae8fc;strokeColor=#6c8ebf;" parent="1" vertex="1">
          <mxGeometry x="-152.5" y="445" width="70" height="30" as="geometry" />
        </mxCell>
        <mxCell id="nN6z9SuCUhu9jbKAvrdL-9" style="edgeStyle=orthogonalEdgeStyle;rounded=0;orthogonalLoop=1;jettySize=auto;html=1;exitX=0.5;exitY=0;exitDx=0;exitDy=0;entryX=0.5;entryY=1;entryDx=0;entryDy=0;endArrow=none;endFill=0;" parent="1" source="doNa7AhgK9Vixs0M9UTE-64" target="nN6z9SuCUhu9jbKAvrdL-7" edge="1">
          <mxGeometry relative="1" as="geometry">
            <mxPoint x="-575.5" y="1079.9999999999995" as="targetPoint" />
          </mxGeometry>
        </mxCell>
        <mxCell id="doNa7AhgK9Vixs0M9UTE-64" value="Dosagem" style="whiteSpace=wrap;html=1;align=center;fillColor=#dae8fc;strokeColor=#6c8ebf;" parent="1" vertex="1">
          <mxGeometry x="-609.5" y="1178" width="70" height="30" as="geometry" />
        </mxCell>
        <mxCell id="EnHr0ATX-wRnSWAY3tVp-9" style="edgeStyle=orthogonalEdgeStyle;rounded=0;orthogonalLoop=1;jettySize=auto;html=1;exitX=0.5;exitY=0;exitDx=0;exitDy=0;entryX=0;entryY=0.5;entryDx=0;entryDy=0;endArrow=none;endFill=0;" parent="1" source="doNa7AhgK9Vixs0M9UTE-65" target="EnHr0ATX-wRnSWAY3tVp-7" edge="1">
          <mxGeometry relative="1" as="geometry" />
        </mxCell>
        <mxCell id="EnHr0ATX-wRnSWAY3tVp-18" style="edgeStyle=orthogonalEdgeStyle;rounded=0;orthogonalLoop=1;jettySize=auto;html=1;exitX=1;exitY=0.5;exitDx=0;exitDy=0;entryX=0;entryY=0.5;entryDx=0;entryDy=0;endArrow=none;endFill=0;" parent="1" source="doNa7AhgK9Vixs0M9UTE-65" target="doNa7AhgK9Vixs0M9UTE-83" edge="1">
          <mxGeometry relative="1" as="geometry" />
        </mxCell>
        <mxCell id="EnHr0ATX-wRnSWAY3tVp-20" style="edgeStyle=orthogonalEdgeStyle;rounded=0;orthogonalLoop=1;jettySize=auto;html=1;exitX=0.5;exitY=1;exitDx=0;exitDy=0;entryX=0.5;entryY=0;entryDx=0;entryDy=0;endArrow=none;endFill=0;" parent="1" source="doNa7AhgK9Vixs0M9UTE-65" target="doNa7AhgK9Vixs0M9UTE-86" edge="1">
          <mxGeometry relative="1" as="geometry" />
        </mxCell>
        <mxCell id="EnHr0ATX-wRnSWAY3tVp-51" style="edgeStyle=orthogonalEdgeStyle;rounded=0;orthogonalLoop=1;jettySize=auto;html=1;exitX=0;exitY=1;exitDx=0;exitDy=0;entryX=0.5;entryY=0;entryDx=0;entryDy=0;endArrow=none;endFill=0;" parent="1" source="doNa7AhgK9Vixs0M9UTE-65" target="EnHr0ATX-wRnSWAY3tVp-49" edge="1">
          <mxGeometry relative="1" as="geometry">
            <Array as="points">
              <mxPoint x="-480" y="475" />
              <mxPoint x="-480" y="635" />
              <mxPoint x="-512" y="635" />
            </Array>
          </mxGeometry>
        </mxCell>
        <mxCell id="doNa7AhgK9Vixs0M9UTE-65" value="Médico" style="whiteSpace=wrap;html=1;align=center;fillColor=#dae8fc;strokeColor=#6c8ebf;" parent="1" vertex="1">
          <mxGeometry x="-450" y="445" width="60" height="30" as="geometry" />
        </mxCell>
        <mxCell id="EnHr0ATX-wRnSWAY3tVp-34" style="edgeStyle=orthogonalEdgeStyle;rounded=0;orthogonalLoop=1;jettySize=auto;html=1;exitX=0.75;exitY=1;exitDx=0;exitDy=0;entryX=0.5;entryY=0;entryDx=0;entryDy=0;endArrow=none;endFill=0;" parent="1" source="doNa7AhgK9Vixs0M9UTE-66" target="EnHr0ATX-wRnSWAY3tVp-33" edge="1">
          <mxGeometry relative="1" as="geometry" />
        </mxCell>
        <mxCell id="EnHr0ATX-wRnSWAY3tVp-45" style="edgeStyle=orthogonalEdgeStyle;rounded=0;orthogonalLoop=1;jettySize=auto;html=1;exitX=0;exitY=0.5;exitDx=0;exitDy=0;entryX=1;entryY=0.5;entryDx=0;entryDy=0;endArrow=none;endFill=0;" parent="1" source="doNa7AhgK9Vixs0M9UTE-66" target="EnHr0ATX-wRnSWAY3tVp-27" edge="1">
          <mxGeometry relative="1" as="geometry" />
        </mxCell>
        <mxCell id="EnHr0ATX-wRnSWAY3tVp-47" style="edgeStyle=orthogonalEdgeStyle;rounded=0;orthogonalLoop=1;jettySize=auto;html=1;exitX=0.25;exitY=1;exitDx=0;exitDy=0;entryX=0.5;entryY=0;entryDx=0;entryDy=0;endArrow=none;endFill=0;" parent="1" source="doNa7AhgK9Vixs0M9UTE-66" target="doNa7AhgK9Vixs0M9UTE-99" edge="1">
          <mxGeometry relative="1" as="geometry" />
        </mxCell>
        <mxCell id="EnHr0ATX-wRnSWAY3tVp-106" style="edgeStyle=none;rounded=0;orthogonalLoop=1;jettySize=auto;html=1;exitX=1;exitY=0.5;exitDx=0;exitDy=0;entryX=0;entryY=0.5;entryDx=0;entryDy=0;endArrow=none;endFill=0;" parent="1" source="doNa7AhgK9Vixs0M9UTE-66" target="EnHr0ATX-wRnSWAY3tVp-102" edge="1">
          <mxGeometry relative="1" as="geometry" />
        </mxCell>
        <mxCell id="doNa7AhgK9Vixs0M9UTE-66" value="Psicólogo" style="whiteSpace=wrap;html=1;align=center;fillColor=#dae8fc;strokeColor=#6c8ebf;" parent="1" vertex="1">
          <mxGeometry x="-670" y="445" width="80" height="30" as="geometry" />
        </mxCell>
        <mxCell id="EnHr0ATX-wRnSWAY3tVp-129" style="edgeStyle=none;rounded=0;orthogonalLoop=1;jettySize=auto;html=1;exitX=0;exitY=0.5;exitDx=0;exitDy=0;entryX=0.5;entryY=0;entryDx=0;entryDy=0;endArrow=none;endFill=0;" parent="1" target="EnHr0ATX-wRnSWAY3tVp-123" edge="1">
          <mxGeometry relative="1" as="geometry">
            <mxPoint x="-965" y="944.9999999999995" as="sourcePoint" />
          </mxGeometry>
        </mxCell>
        <mxCell id="EnHr0ATX-wRnSWAY3tVp-130" style="edgeStyle=none;rounded=0;orthogonalLoop=1;jettySize=auto;html=1;exitX=0;exitY=0.5;exitDx=0;exitDy=0;endArrow=none;endFill=0;" parent="1" target="EnHr0ATX-wRnSWAY3tVp-124" edge="1">
          <mxGeometry relative="1" as="geometry">
            <mxPoint x="-965" y="944.9999999999995" as="sourcePoint" />
          </mxGeometry>
        </mxCell>
        <mxCell id="EnHr0ATX-wRnSWAY3tVp-131" style="edgeStyle=none;rounded=0;orthogonalLoop=1;jettySize=auto;html=1;exitX=0;exitY=0.5;exitDx=0;exitDy=0;endArrow=none;endFill=0;" parent="1" target="EnHr0ATX-wRnSWAY3tVp-125" edge="1">
          <mxGeometry relative="1" as="geometry">
            <mxPoint x="-965" y="944.9999999999995" as="sourcePoint" />
          </mxGeometry>
        </mxCell>
        <mxCell id="EnHr0ATX-wRnSWAY3tVp-132" style="edgeStyle=none;rounded=0;orthogonalLoop=1;jettySize=auto;html=1;exitX=0;exitY=0.5;exitDx=0;exitDy=0;entryX=0;entryY=0.5;entryDx=0;entryDy=0;endArrow=none;endFill=0;" parent="1" target="EnHr0ATX-wRnSWAY3tVp-126" edge="1">
          <mxGeometry relative="1" as="geometry">
            <mxPoint x="-965" y="944.9999999999995" as="sourcePoint" />
          </mxGeometry>
        </mxCell>
        <mxCell id="EnHr0ATX-wRnSWAY3tVp-133" style="edgeStyle=none;rounded=0;orthogonalLoop=1;jettySize=auto;html=1;exitX=0;exitY=0.5;exitDx=0;exitDy=0;entryX=0;entryY=0.5;entryDx=0;entryDy=0;endArrow=none;endFill=0;" parent="1" target="EnHr0ATX-wRnSWAY3tVp-127" edge="1">
          <mxGeometry relative="1" as="geometry">
            <mxPoint x="-965" y="944.9999999999995" as="sourcePoint" />
          </mxGeometry>
        </mxCell>
        <mxCell id="nN6z9SuCUhu9jbKAvrdL-13" style="edgeStyle=orthogonalEdgeStyle;rounded=0;orthogonalLoop=1;jettySize=auto;html=1;exitX=1;exitY=0.5;exitDx=0;exitDy=0;entryX=0;entryY=0.5;entryDx=0;entryDy=0;endArrow=none;endFill=0;" parent="1" source="doNa7AhgK9Vixs0M9UTE-67" target="nN6z9SuCUhu9jbKAvrdL-6" edge="1">
          <mxGeometry relative="1" as="geometry" />
        </mxCell>
        <mxCell id="doNa7AhgK9Vixs0M9UTE-67" value="Medicação" style="whiteSpace=wrap;html=1;align=center;fillColor=#dae8fc;strokeColor=#6c8ebf;" parent="1" vertex="1">
          <mxGeometry x="-965" y="930" width="80" height="30" as="geometry" />
        </mxCell>
        <mxCell id="EnHr0ATX-wRnSWAY3tVp-37" style="edgeStyle=orthogonalEdgeStyle;rounded=0;orthogonalLoop=1;jettySize=auto;html=1;exitX=0.75;exitY=0;exitDx=0;exitDy=0;entryX=0.5;entryY=1;entryDx=0;entryDy=0;endArrow=none;endFill=0;" parent="1" source="doNa7AhgK9Vixs0M9UTE-69" target="doNa7AhgK9Vixs0M9UTE-89" edge="1">
          <mxGeometry relative="1" as="geometry" />
        </mxCell>
        <mxCell id="EnHr0ATX-wRnSWAY3tVp-54" style="edgeStyle=orthogonalEdgeStyle;rounded=0;orthogonalLoop=1;jettySize=auto;html=1;exitX=0.5;exitY=1;exitDx=0;exitDy=0;entryX=0.5;entryY=0;entryDx=0;entryDy=0;endArrow=none;endFill=0;" parent="1" source="doNa7AhgK9Vixs0M9UTE-69" target="doNa7AhgK9Vixs0M9UTE-74" edge="1">
          <mxGeometry relative="1" as="geometry" />
        </mxCell>
        <mxCell id="doNa7AhgK9Vixs0M9UTE-69" value="Tratamento" style="whiteSpace=wrap;html=1;align=center;fillColor=#dae8fc;strokeColor=#6c8ebf;" parent="1" vertex="1">
          <mxGeometry x="-460" y="635" width="80" height="30" as="geometry" />
        </mxCell>
        <mxCell id="EnHr0ATX-wRnSWAY3tVp-55" style="edgeStyle=orthogonalEdgeStyle;rounded=0;orthogonalLoop=1;jettySize=auto;html=1;exitX=0.5;exitY=1;exitDx=0;exitDy=0;entryX=0.5;entryY=0;entryDx=0;entryDy=0;endArrow=none;endFill=0;" parent="1" source="doNa7AhgK9Vixs0M9UTE-74" target="doNa7AhgK9Vixs0M9UTE-62" edge="1">
          <mxGeometry relative="1" as="geometry" />
        </mxCell>
        <mxCell id="doNa7AhgK9Vixs0M9UTE-74" value="Acompanha" style="shape=rhombus;perimeter=rhombusPerimeter;whiteSpace=wrap;html=1;align=center;fillColor=#ffe6cc;strokeColor=#d79b00;" parent="1" vertex="1">
          <mxGeometry x="-465" y="710" width="90" height="30" as="geometry" />
        </mxCell>
        <mxCell id="doNa7AhgK9Vixs0M9UTE-83" value="Realiza" style="shape=rhombus;perimeter=rhombusPerimeter;whiteSpace=wrap;html=1;align=center;fillColor=#ffe6cc;strokeColor=#d79b00;fixedWidth=0;" parent="1" vertex="1">
          <mxGeometry x="-301" y="445" width="60" height="30" as="geometry" />
        </mxCell>
        <mxCell id="EnHr0ATX-wRnSWAY3tVp-22" style="edgeStyle=orthogonalEdgeStyle;rounded=0;orthogonalLoop=1;jettySize=auto;html=1;exitX=0.5;exitY=1;exitDx=0;exitDy=0;entryX=0.5;entryY=0;entryDx=0;entryDy=0;endArrow=none;endFill=0;" parent="1" source="doNa7AhgK9Vixs0M9UTE-86" target="doNa7AhgK9Vixs0M9UTE-69" edge="1">
          <mxGeometry relative="1" as="geometry" />
        </mxCell>
        <mxCell id="doNa7AhgK9Vixs0M9UTE-86" value="Indica" style="shape=rhombus;perimeter=rhombusPerimeter;whiteSpace=wrap;html=1;align=center;fillColor=#ffe6cc;strokeColor=#d79b00;fixedWidth=0;" parent="1" vertex="1">
          <mxGeometry x="-450" y="550" width="60" height="30" as="geometry" />
        </mxCell>
        <mxCell id="EnHr0ATX-wRnSWAY3tVp-38" style="edgeStyle=orthogonalEdgeStyle;rounded=0;orthogonalLoop=1;jettySize=auto;html=1;exitX=1;exitY=0.5;exitDx=0;exitDy=0;entryX=0;entryY=0.5;entryDx=0;entryDy=0;endArrow=none;endFill=0;" parent="1" source="doNa7AhgK9Vixs0M9UTE-89" target="EnHr0ATX-wRnSWAY3tVp-36" edge="1">
          <mxGeometry relative="1" as="geometry" />
        </mxCell>
        <mxCell id="doNa7AhgK9Vixs0M9UTE-89" value="Trata" style="shape=rhombus;perimeter=rhombusPerimeter;whiteSpace=wrap;html=1;align=center;fillColor=#ffe6cc;strokeColor=#d79b00;" parent="1" vertex="1">
          <mxGeometry x="-326" y="550" width="50" height="30" as="geometry" />
        </mxCell>
        <mxCell id="EnHr0ATX-wRnSWAY3tVp-24" style="edgeStyle=orthogonalEdgeStyle;rounded=0;orthogonalLoop=1;jettySize=auto;html=1;exitX=0;exitY=0.5;exitDx=0;exitDy=0;entryX=1;entryY=0.5;entryDx=0;entryDy=0;endArrow=none;endFill=0;" parent="1" source="doNa7AhgK9Vixs0M9UTE-94" target="doNa7AhgK9Vixs0M9UTE-69" edge="1">
          <mxGeometry relative="1" as="geometry" />
        </mxCell>
        <mxCell id="doNa7AhgK9Vixs0M9UTE-94" value="Faz" style="shape=rhombus;perimeter=rhombusPerimeter;whiteSpace=wrap;html=1;align=center;fillColor=#ffe6cc;strokeColor=#d79b00;fixedWidth=0;" parent="1" vertex="1">
          <mxGeometry x="-250" y="635" width="40" height="30" as="geometry" />
        </mxCell>
        <mxCell id="doNa7AhgK9Vixs0M9UTE-99" value="Atualiza" style="shape=rhombus;perimeter=rhombusPerimeter;whiteSpace=wrap;html=1;align=center;fillColor=#ffe6cc;strokeColor=#d79b00;" parent="1" vertex="1">
          <mxGeometry x="-684" y="625" width="70" height="30" as="geometry" />
        </mxCell>
        <mxCell id="EnHr0ATX-wRnSWAY3tVp-26" style="edgeStyle=orthogonalEdgeStyle;rounded=0;orthogonalLoop=1;jettySize=auto;html=1;exitX=0;exitY=0.5;exitDx=0;exitDy=0;entryX=1;entryY=0.5;entryDx=0;entryDy=0;endArrow=none;endFill=0;" parent="1" source="doNa7AhgK9Vixs0M9UTE-106" target="doNa7AhgK9Vixs0M9UTE-62" edge="1">
          <mxGeometry relative="1" as="geometry" />
        </mxCell>
        <mxCell id="doNa7AhgK9Vixs0M9UTE-106" value="Possui" style="shape=rhombus;perimeter=rhombusPerimeter;whiteSpace=wrap;html=1;align=center;fillColor=#ffe6cc;strokeColor=#d79b00;fixedWidth=0;" parent="1" vertex="1">
          <mxGeometry x="-157.5" y="834" width="60" height="30" as="geometry" />
        </mxCell>
        <mxCell id="EnHr0ATX-wRnSWAY3tVp-2" value="&lt;font color=&quot;#a60303&quot;&gt;Total não exclusivo&lt;/font&gt;" style="text;html=1;align=center;verticalAlign=middle;resizable=0;points=[];autosize=1;strokeColor=none;fillColor=none;" parent="1" vertex="1">
          <mxGeometry x="-507" y="165" width="120" height="30" as="geometry" />
        </mxCell>
        <mxCell id="EnHr0ATX-wRnSWAY3tVp-12" style="edgeStyle=orthogonalEdgeStyle;rounded=0;orthogonalLoop=1;jettySize=auto;html=1;exitX=0;exitY=0.5;exitDx=0;exitDy=0;entryX=0.5;entryY=0;entryDx=0;entryDy=0;endArrow=none;endFill=0;" parent="1" source="EnHr0ATX-wRnSWAY3tVp-7" edge="1">
          <mxGeometry relative="1" as="geometry">
            <mxPoint x="-529" y="385" as="sourcePoint" />
            <mxPoint x="-637" y="445" as="targetPoint" />
          </mxGeometry>
        </mxCell>
        <mxCell id="EnHr0ATX-wRnSWAY3tVp-7" value="" style="triangle;whiteSpace=wrap;html=1;rotation=-90;fillColor=#f8cecc;strokeColor=#b85450;" parent="1" vertex="1">
          <mxGeometry x="-537" y="351" width="30" height="40" as="geometry" />
        </mxCell>
        <mxCell id="EnHr0ATX-wRnSWAY3tVp-46" style="edgeStyle=orthogonalEdgeStyle;rounded=0;orthogonalLoop=1;jettySize=auto;html=1;exitX=0.5;exitY=1;exitDx=0;exitDy=0;entryX=0.5;entryY=0;entryDx=0;entryDy=0;endArrow=none;endFill=0;" parent="1" source="EnHr0ATX-wRnSWAY3tVp-27" target="EnHr0ATX-wRnSWAY3tVp-28" edge="1">
          <mxGeometry relative="1" as="geometry" />
        </mxCell>
        <mxCell id="EnHr0ATX-wRnSWAY3tVp-27" value="Atende" style="shape=rhombus;perimeter=rhombusPerimeter;whiteSpace=wrap;html=1;align=center;fillColor=#ffe6cc;strokeColor=#d79b00;fixedWidth=0;" parent="1" vertex="1">
          <mxGeometry x="-790" y="445" width="60" height="30" as="geometry" />
        </mxCell>
        <mxCell id="EnHr0ATX-wRnSWAY3tVp-58" style="edgeStyle=orthogonalEdgeStyle;rounded=0;orthogonalLoop=1;jettySize=auto;html=1;exitX=0.5;exitY=1;exitDx=0;exitDy=0;entryX=0.5;entryY=0;entryDx=0;entryDy=0;endArrow=none;endFill=0;" parent="1" source="EnHr0ATX-wRnSWAY3tVp-28" target="EnHr0ATX-wRnSWAY3tVp-57" edge="1">
          <mxGeometry relative="1" as="geometry" />
        </mxCell>
        <mxCell id="EnHr0ATX-wRnSWAY3tVp-110" style="edgeStyle=none;rounded=0;orthogonalLoop=1;jettySize=auto;html=1;exitX=0;exitY=0.5;exitDx=0;exitDy=0;entryX=1;entryY=1;entryDx=0;entryDy=0;endArrow=none;endFill=0;" parent="1" source="EnHr0ATX-wRnSWAY3tVp-28" target="EnHr0ATX-wRnSWAY3tVp-109" edge="1">
          <mxGeometry relative="1" as="geometry" />
        </mxCell>
        <mxCell id="EnHr0ATX-wRnSWAY3tVp-111" style="edgeStyle=none;rounded=0;orthogonalLoop=1;jettySize=auto;html=1;exitX=0;exitY=0.5;exitDx=0;exitDy=0;entryX=1;entryY=0.5;entryDx=0;entryDy=0;endArrow=none;endFill=0;" parent="1" source="EnHr0ATX-wRnSWAY3tVp-28" target="EnHr0ATX-wRnSWAY3tVp-108" edge="1">
          <mxGeometry relative="1" as="geometry" />
        </mxCell>
        <mxCell id="EnHr0ATX-wRnSWAY3tVp-112" style="edgeStyle=none;rounded=0;orthogonalLoop=1;jettySize=auto;html=1;exitX=0;exitY=0.5;exitDx=0;exitDy=0;entryX=1;entryY=0;entryDx=0;entryDy=0;endArrow=none;endFill=0;" parent="1" source="EnHr0ATX-wRnSWAY3tVp-28" target="EnHr0ATX-wRnSWAY3tVp-107" edge="1">
          <mxGeometry relative="1" as="geometry" />
        </mxCell>
        <mxCell id="EnHr0ATX-wRnSWAY3tVp-240" style="edgeStyle=none;rounded=0;orthogonalLoop=1;jettySize=auto;html=1;exitX=0;exitY=0.5;exitDx=0;exitDy=0;entryX=0.5;entryY=1;entryDx=0;entryDy=0;endArrow=none;endFill=0;" parent="1" source="EnHr0ATX-wRnSWAY3tVp-28" target="EnHr0ATX-wRnSWAY3tVp-239" edge="1">
          <mxGeometry relative="1" as="geometry" />
        </mxCell>
        <mxCell id="EnHr0ATX-wRnSWAY3tVp-28" value="Terapia" style="whiteSpace=wrap;html=1;align=center;fillColor=#dae8fc;strokeColor=#6c8ebf;" parent="1" vertex="1">
          <mxGeometry x="-790" y="640" width="60" height="30" as="geometry" />
        </mxCell>
        <mxCell id="EnHr0ATX-wRnSWAY3tVp-35" style="edgeStyle=orthogonalEdgeStyle;rounded=0;orthogonalLoop=1;jettySize=auto;html=1;exitX=0.5;exitY=1;exitDx=0;exitDy=0;entryX=0.25;entryY=0;entryDx=0;entryDy=0;endArrow=none;endFill=0;" parent="1" source="EnHr0ATX-wRnSWAY3tVp-33" target="doNa7AhgK9Vixs0M9UTE-69" edge="1">
          <mxGeometry relative="1" as="geometry" />
        </mxCell>
        <mxCell id="EnHr0ATX-wRnSWAY3tVp-33" value="Participa" style="shape=rhombus;perimeter=rhombusPerimeter;whiteSpace=wrap;html=1;align=center;fillColor=#ffe6cc;strokeColor=#d79b00;fixedWidth=0;" parent="1" vertex="1">
          <mxGeometry x="-559.5" y="535" width="70" height="30" as="geometry" />
        </mxCell>
        <mxCell id="EnHr0ATX-wRnSWAY3tVp-191" style="edgeStyle=none;rounded=0;orthogonalLoop=1;jettySize=auto;html=1;exitX=0.25;exitY=0;exitDx=0;exitDy=0;entryX=1;entryY=0.5;entryDx=0;entryDy=0;endArrow=none;endFill=0;" parent="1" source="EnHr0ATX-wRnSWAY3tVp-36" target="EnHr0ATX-wRnSWAY3tVp-189" edge="1">
          <mxGeometry relative="1" as="geometry" />
        </mxCell>
        <mxCell id="EnHr0ATX-wRnSWAY3tVp-192" style="edgeStyle=none;rounded=0;orthogonalLoop=1;jettySize=auto;html=1;exitX=0.5;exitY=0;exitDx=0;exitDy=0;endArrow=none;endFill=0;" parent="1" source="EnHr0ATX-wRnSWAY3tVp-36" target="EnHr0ATX-wRnSWAY3tVp-188" edge="1">
          <mxGeometry relative="1" as="geometry" />
        </mxCell>
        <mxCell id="EnHr0ATX-wRnSWAY3tVp-193" style="edgeStyle=none;rounded=0;orthogonalLoop=1;jettySize=auto;html=1;exitX=0.5;exitY=0;exitDx=0;exitDy=0;entryX=0.043;entryY=0.695;entryDx=0;entryDy=0;entryPerimeter=0;endArrow=none;endFill=0;" parent="1" source="EnHr0ATX-wRnSWAY3tVp-36" target="EnHr0ATX-wRnSWAY3tVp-182" edge="1">
          <mxGeometry relative="1" as="geometry" />
        </mxCell>
        <mxCell id="EnHr0ATX-wRnSWAY3tVp-194" style="edgeStyle=none;rounded=0;orthogonalLoop=1;jettySize=auto;html=1;exitX=1;exitY=0.5;exitDx=0;exitDy=0;entryX=0;entryY=0.5;entryDx=0;entryDy=0;endArrow=none;endFill=0;" parent="1" source="EnHr0ATX-wRnSWAY3tVp-36" target="EnHr0ATX-wRnSWAY3tVp-185" edge="1">
          <mxGeometry relative="1" as="geometry" />
        </mxCell>
        <mxCell id="EnHr0ATX-wRnSWAY3tVp-195" style="edgeStyle=none;rounded=0;orthogonalLoop=1;jettySize=auto;html=1;exitX=1;exitY=0.75;exitDx=0;exitDy=0;entryX=0;entryY=0;entryDx=0;entryDy=0;endArrow=none;endFill=0;" parent="1" source="EnHr0ATX-wRnSWAY3tVp-36" target="EnHr0ATX-wRnSWAY3tVp-187" edge="1">
          <mxGeometry relative="1" as="geometry" />
        </mxCell>
        <mxCell id="EnHr0ATX-wRnSWAY3tVp-196" style="edgeStyle=none;rounded=0;orthogonalLoop=1;jettySize=auto;html=1;exitX=0.5;exitY=1;exitDx=0;exitDy=0;entryX=0.5;entryY=0;entryDx=0;entryDy=0;endArrow=none;endFill=0;" parent="1" source="EnHr0ATX-wRnSWAY3tVp-36" target="EnHr0ATX-wRnSWAY3tVp-186" edge="1">
          <mxGeometry relative="1" as="geometry" />
        </mxCell>
        <mxCell id="EnHr0ATX-wRnSWAY3tVp-36" value="Transtorno" style="whiteSpace=wrap;html=1;align=center;fillColor=#dae8fc;strokeColor=#6c8ebf;" parent="1" vertex="1">
          <mxGeometry x="-247.75" y="550" width="70" height="30" as="geometry" />
        </mxCell>
        <mxCell id="EnHr0ATX-wRnSWAY3tVp-53" style="edgeStyle=orthogonalEdgeStyle;rounded=0;orthogonalLoop=1;jettySize=auto;html=1;exitX=0.5;exitY=1;exitDx=0;exitDy=0;entryX=0.25;entryY=0;entryDx=0;entryDy=0;endArrow=none;endFill=0;" parent="1" source="EnHr0ATX-wRnSWAY3tVp-49" target="doNa7AhgK9Vixs0M9UTE-62" edge="1">
          <mxGeometry relative="1" as="geometry" />
        </mxCell>
        <mxCell id="EnHr0ATX-wRnSWAY3tVp-49" value="Atualiza" style="shape=rhombus;perimeter=rhombusPerimeter;whiteSpace=wrap;html=1;align=center;fillColor=#ffe6cc;strokeColor=#d79b00;" parent="1" vertex="1">
          <mxGeometry x="-547" y="690" width="70" height="30" as="geometry" />
        </mxCell>
        <mxCell id="EnHr0ATX-wRnSWAY3tVp-59" style="edgeStyle=orthogonalEdgeStyle;rounded=0;orthogonalLoop=1;jettySize=auto;html=1;exitX=1;exitY=0.5;exitDx=0;exitDy=0;entryX=0;entryY=0.5;entryDx=0;entryDy=0;endArrow=none;endFill=0;" parent="1" source="EnHr0ATX-wRnSWAY3tVp-57" target="doNa7AhgK9Vixs0M9UTE-62" edge="1">
          <mxGeometry relative="1" as="geometry" />
        </mxCell>
        <mxCell id="EnHr0ATX-wRnSWAY3tVp-57" value="Presente" style="shape=rhombus;perimeter=rhombusPerimeter;whiteSpace=wrap;html=1;align=center;fillColor=#ffe6cc;strokeColor=#d79b00;" parent="1" vertex="1">
          <mxGeometry x="-795" y="834" width="70" height="30" as="geometry" />
        </mxCell>
        <mxCell id="EnHr0ATX-wRnSWAY3tVp-82" style="edgeStyle=none;rounded=0;orthogonalLoop=1;jettySize=auto;html=1;exitX=1;exitY=0.5;exitDx=0;exitDy=0;entryX=0;entryY=0.5;entryDx=0;entryDy=0;endArrow=none;endFill=0;" parent="1" source="EnHr0ATX-wRnSWAY3tVp-60" target="doNa7AhgK9Vixs0M9UTE-1" edge="1">
          <mxGeometry relative="1" as="geometry" />
        </mxCell>
        <mxCell id="EnHr0ATX-wRnSWAY3tVp-60" value="ID" style="ellipse;whiteSpace=wrap;html=1;align=center;fontStyle=4;fillColor=#f5f5f5;fontColor=#333333;strokeColor=#666666;" parent="1" vertex="1">
          <mxGeometry x="-587" y="68" width="40" height="30" as="geometry" />
        </mxCell>
        <mxCell id="EnHr0ATX-wRnSWAY3tVp-83" style="edgeStyle=none;rounded=0;orthogonalLoop=1;jettySize=auto;html=1;exitX=1;exitY=0.5;exitDx=0;exitDy=0;entryX=0;entryY=0.5;entryDx=0;entryDy=0;endArrow=none;endFill=0;" parent="1" source="EnHr0ATX-wRnSWAY3tVp-61" target="doNa7AhgK9Vixs0M9UTE-1" edge="1">
          <mxGeometry relative="1" as="geometry" />
        </mxCell>
        <mxCell id="EnHr0ATX-wRnSWAY3tVp-61" value="Nome" style="ellipse;whiteSpace=wrap;html=1;align=center;fillColor=#f5f5f5;fontColor=#333333;strokeColor=#666666;" parent="1" vertex="1">
          <mxGeometry x="-574" y="31" width="60" height="30" as="geometry" />
        </mxCell>
        <mxCell id="EnHr0ATX-wRnSWAY3tVp-84" style="edgeStyle=none;rounded=0;orthogonalLoop=1;jettySize=auto;html=1;exitX=1;exitY=1;exitDx=0;exitDy=0;entryX=0.5;entryY=0;entryDx=0;entryDy=0;endArrow=none;endFill=0;" parent="1" source="EnHr0ATX-wRnSWAY3tVp-62" target="doNa7AhgK9Vixs0M9UTE-1" edge="1">
          <mxGeometry relative="1" as="geometry" />
        </mxCell>
        <mxCell id="EnHr0ATX-wRnSWAY3tVp-62" value="CPF" style="ellipse;whiteSpace=wrap;html=1;align=center;fillColor=#f5f5f5;fontColor=#333333;strokeColor=#666666;" parent="1" vertex="1">
          <mxGeometry x="-529" y="3" width="50" height="30" as="geometry" />
        </mxCell>
        <mxCell id="EnHr0ATX-wRnSWAY3tVp-76" style="edgeStyle=none;rounded=0;orthogonalLoop=1;jettySize=auto;html=1;exitX=0.5;exitY=0;exitDx=0;exitDy=0;entryX=1;entryY=1;entryDx=0;entryDy=0;endArrow=none;endFill=0;" parent="1" source="EnHr0ATX-wRnSWAY3tVp-63" target="EnHr0ATX-wRnSWAY3tVp-66" edge="1">
          <mxGeometry relative="1" as="geometry" />
        </mxCell>
        <mxCell id="EnHr0ATX-wRnSWAY3tVp-77" style="edgeStyle=none;rounded=0;orthogonalLoop=1;jettySize=auto;html=1;exitX=0.5;exitY=0;exitDx=0;exitDy=0;entryX=0.5;entryY=1;entryDx=0;entryDy=0;endArrow=none;endFill=0;" parent="1" source="EnHr0ATX-wRnSWAY3tVp-63" target="EnHr0ATX-wRnSWAY3tVp-67" edge="1">
          <mxGeometry relative="1" as="geometry" />
        </mxCell>
        <mxCell id="EnHr0ATX-wRnSWAY3tVp-78" style="edgeStyle=none;rounded=0;orthogonalLoop=1;jettySize=auto;html=1;exitX=0.5;exitY=0;exitDx=0;exitDy=0;entryX=0;entryY=1;entryDx=0;entryDy=0;endArrow=none;endFill=0;" parent="1" source="EnHr0ATX-wRnSWAY3tVp-63" target="EnHr0ATX-wRnSWAY3tVp-68" edge="1">
          <mxGeometry relative="1" as="geometry" />
        </mxCell>
        <mxCell id="EnHr0ATX-wRnSWAY3tVp-79" style="edgeStyle=none;rounded=0;orthogonalLoop=1;jettySize=auto;html=1;exitX=0.5;exitY=0;exitDx=0;exitDy=0;entryX=0;entryY=0.5;entryDx=0;entryDy=0;endArrow=none;endFill=0;" parent="1" source="EnHr0ATX-wRnSWAY3tVp-63" target="EnHr0ATX-wRnSWAY3tVp-69" edge="1">
          <mxGeometry relative="1" as="geometry" />
        </mxCell>
        <mxCell id="EnHr0ATX-wRnSWAY3tVp-80" style="edgeStyle=none;rounded=0;orthogonalLoop=1;jettySize=auto;html=1;exitX=0.5;exitY=0;exitDx=0;exitDy=0;entryX=0;entryY=0.5;entryDx=0;entryDy=0;endArrow=none;endFill=0;" parent="1" source="EnHr0ATX-wRnSWAY3tVp-63" target="EnHr0ATX-wRnSWAY3tVp-70" edge="1">
          <mxGeometry relative="1" as="geometry" />
        </mxCell>
        <mxCell id="EnHr0ATX-wRnSWAY3tVp-81" style="edgeStyle=none;rounded=0;orthogonalLoop=1;jettySize=auto;html=1;exitX=0.5;exitY=0;exitDx=0;exitDy=0;entryX=0;entryY=0.5;entryDx=0;entryDy=0;endArrow=none;endFill=0;" parent="1" source="EnHr0ATX-wRnSWAY3tVp-63" target="EnHr0ATX-wRnSWAY3tVp-71" edge="1">
          <mxGeometry relative="1" as="geometry" />
        </mxCell>
        <mxCell id="EnHr0ATX-wRnSWAY3tVp-85" style="edgeStyle=none;rounded=0;orthogonalLoop=1;jettySize=auto;html=1;exitX=0.5;exitY=1;exitDx=0;exitDy=0;entryX=0.5;entryY=0;entryDx=0;entryDy=0;endArrow=none;endFill=0;" parent="1" source="EnHr0ATX-wRnSWAY3tVp-63" target="doNa7AhgK9Vixs0M9UTE-1" edge="1">
          <mxGeometry relative="1" as="geometry" />
        </mxCell>
        <mxCell id="EnHr0ATX-wRnSWAY3tVp-63" value="Endereço" style="ellipse;whiteSpace=wrap;html=1;align=center;fillColor=#f5f5f5;fontColor=#333333;strokeColor=#666666;" parent="1" vertex="1">
          <mxGeometry x="-477" y="-20" width="70" height="30" as="geometry" />
        </mxCell>
        <mxCell id="EnHr0ATX-wRnSWAY3tVp-74" style="edgeStyle=none;rounded=0;orthogonalLoop=1;jettySize=auto;html=1;exitX=1;exitY=1;exitDx=0;exitDy=0;entryX=0.5;entryY=0;entryDx=0;entryDy=0;endArrow=none;endFill=0;" parent="1" source="EnHr0ATX-wRnSWAY3tVp-64" target="EnHr0ATX-wRnSWAY3tVp-63" edge="1">
          <mxGeometry relative="1" as="geometry" />
        </mxCell>
        <mxCell id="EnHr0ATX-wRnSWAY3tVp-64" value="CEP" style="ellipse;whiteSpace=wrap;html=1;align=center;fillColor=#f5f5f5;fontColor=#333333;strokeColor=#666666;" parent="1" vertex="1">
          <mxGeometry x="-617" y="-87" width="50" height="30" as="geometry" />
        </mxCell>
        <mxCell id="EnHr0ATX-wRnSWAY3tVp-75" style="edgeStyle=none;rounded=0;orthogonalLoop=1;jettySize=auto;html=1;exitX=1;exitY=1;exitDx=0;exitDy=0;entryX=0.5;entryY=0;entryDx=0;entryDy=0;endArrow=none;endFill=0;" parent="1" source="EnHr0ATX-wRnSWAY3tVp-65" target="EnHr0ATX-wRnSWAY3tVp-63" edge="1">
          <mxGeometry relative="1" as="geometry" />
        </mxCell>
        <mxCell id="EnHr0ATX-wRnSWAY3tVp-65" value="Logradouro" style="ellipse;whiteSpace=wrap;html=1;align=center;fillColor=#f5f5f5;fontColor=#333333;strokeColor=#666666;" parent="1" vertex="1">
          <mxGeometry x="-596" y="-123" width="80" height="30" as="geometry" />
        </mxCell>
        <mxCell id="EnHr0ATX-wRnSWAY3tVp-66" value="Número" style="ellipse;whiteSpace=wrap;html=1;align=center;fillColor=#f5f5f5;fontColor=#333333;strokeColor=#666666;" parent="1" vertex="1">
          <mxGeometry x="-548.75" y="-160" width="70" height="30" as="geometry" />
        </mxCell>
        <mxCell id="EnHr0ATX-wRnSWAY3tVp-67" value="Complemento" style="ellipse;whiteSpace=wrap;html=1;align=center;fillColor=#f5f5f5;fontColor=#333333;strokeColor=#666666;" parent="1" vertex="1">
          <mxGeometry x="-501.75" y="-190" width="100" height="30" as="geometry" />
        </mxCell>
        <mxCell id="EnHr0ATX-wRnSWAY3tVp-68" value="Bairro" style="ellipse;whiteSpace=wrap;html=1;align=center;fillColor=#f5f5f5;fontColor=#333333;strokeColor=#666666;" parent="1" vertex="1">
          <mxGeometry x="-397.75" y="-190" width="60" height="30" as="geometry" />
        </mxCell>
        <mxCell id="EnHr0ATX-wRnSWAY3tVp-69" value="Cidade" style="ellipse;whiteSpace=wrap;html=1;align=center;fillColor=#f5f5f5;fontColor=#333333;strokeColor=#666666;" parent="1" vertex="1">
          <mxGeometry x="-361.75" y="-150" width="60" height="30" as="geometry" />
        </mxCell>
        <mxCell id="EnHr0ATX-wRnSWAY3tVp-70" value="Estado" style="ellipse;whiteSpace=wrap;html=1;align=center;fillColor=#f5f5f5;fontColor=#333333;strokeColor=#666666;" parent="1" vertex="1">
          <mxGeometry x="-331.75" y="-110" width="60" height="30" as="geometry" />
        </mxCell>
        <mxCell id="EnHr0ATX-wRnSWAY3tVp-71" value="País" style="ellipse;whiteSpace=wrap;html=1;align=center;fillColor=#f5f5f5;fontColor=#333333;strokeColor=#666666;" parent="1" vertex="1">
          <mxGeometry x="-312.75" y="-70" width="50" height="30" as="geometry" />
        </mxCell>
        <mxCell id="EnHr0ATX-wRnSWAY3tVp-72" value="Telefone" style="ellipse;whiteSpace=wrap;html=1;align=center;fillColor=#f5f5f5;fontColor=#333333;strokeColor=#666666;" parent="1" vertex="1">
          <mxGeometry x="-413" y="4" width="70" height="30" as="geometry" />
        </mxCell>
        <mxCell id="EnHr0ATX-wRnSWAY3tVp-73" value="E-mail" style="ellipse;whiteSpace=wrap;html=1;align=center;fillColor=#f5f5f5;fontColor=#333333;strokeColor=#666666;" parent="1" vertex="1">
          <mxGeometry x="-375" y="38" width="60" height="30" as="geometry" />
        </mxCell>
        <mxCell id="EnHr0ATX-wRnSWAY3tVp-88" value="ID" style="ellipse;whiteSpace=wrap;html=1;align=center;fontStyle=4;fillColor=#f5f5f5;fontColor=#333333;strokeColor=#666666;" parent="1" vertex="1">
          <mxGeometry x="-622" y="337" width="40" height="30" as="geometry" />
        </mxCell>
        <mxCell id="EnHr0ATX-wRnSWAY3tVp-89" value="Posição" style="ellipse;whiteSpace=wrap;html=1;align=center;fillColor=#f5f5f5;fontColor=#333333;strokeColor=#666666;" parent="1" vertex="1">
          <mxGeometry x="-642" y="130" width="70" height="30" as="geometry" />
        </mxCell>
        <mxCell id="EnHr0ATX-wRnSWAY3tVp-90" value="Salário" style="ellipse;whiteSpace=wrap;html=1;align=center;fillColor=#f5f5f5;fontColor=#333333;strokeColor=#666666;" parent="1" vertex="1">
          <mxGeometry x="-679" y="157" width="60" height="30" as="geometry" />
        </mxCell>
        <mxCell id="EnHr0ATX-wRnSWAY3tVp-91" value="Data de início" style="ellipse;whiteSpace=wrap;html=1;align=center;fillColor=#f5f5f5;fontColor=#333333;strokeColor=#666666;" parent="1" vertex="1">
          <mxGeometry x="-738" y="187" width="100" height="30" as="geometry" />
        </mxCell>
        <mxCell id="EnHr0ATX-wRnSWAY3tVp-92" value="Faixa de &lt;br&gt;atuação" style="ellipse;whiteSpace=wrap;html=1;align=center;fillColor=#f5f5f5;fontColor=#333333;strokeColor=#666666;" parent="1" vertex="1">
          <mxGeometry x="-723" y="225" width="70" height="40" as="geometry" />
        </mxCell>
        <mxCell id="EnHr0ATX-wRnSWAY3tVp-93" value="Especialidade" style="ellipse;whiteSpace=wrap;html=1;align=center;fillColor=#f5f5f5;fontColor=#333333;strokeColor=#666666;" parent="1" vertex="1">
          <mxGeometry x="-737" y="279" width="100" height="30" as="geometry" />
        </mxCell>
        <mxCell id="EnHr0ATX-wRnSWAY3tVp-94" value="Preço da&lt;br&gt;&amp;nbsp;consulta" style="ellipse;whiteSpace=wrap;html=1;align=center;fillColor=#f5f5f5;fontColor=#333333;strokeColor=#666666;" parent="1" vertex="1">
          <mxGeometry x="-696" y="311" width="70" height="40" as="geometry" />
        </mxCell>
        <mxCell id="EnHr0ATX-wRnSWAY3tVp-102" value="ID" style="ellipse;whiteSpace=wrap;html=1;align=center;fontStyle=4;fillColor=#f5f5f5;fontColor=#333333;strokeColor=#666666;" parent="1" vertex="1">
          <mxGeometry x="-576" y="464" width="40" height="30" as="geometry" />
        </mxCell>
        <mxCell id="EnHr0ATX-wRnSWAY3tVp-179" style="edgeStyle=none;rounded=0;orthogonalLoop=1;jettySize=auto;html=1;exitX=0;exitY=0;exitDx=0;exitDy=0;entryX=1;entryY=0.75;entryDx=0;entryDy=0;endArrow=none;endFill=0;" parent="1" source="EnHr0ATX-wRnSWAY3tVp-103" target="doNa7AhgK9Vixs0M9UTE-69" edge="1">
          <mxGeometry relative="1" as="geometry" />
        </mxCell>
        <mxCell id="EnHr0ATX-wRnSWAY3tVp-103" value="ID" style="ellipse;whiteSpace=wrap;html=1;align=center;fontStyle=4;fillColor=#f5f5f5;fontColor=#333333;strokeColor=#666666;" parent="1" vertex="1">
          <mxGeometry x="-351" y="656" width="40" height="30" as="geometry" />
        </mxCell>
        <mxCell id="EnHr0ATX-wRnSWAY3tVp-105" style="edgeStyle=none;rounded=0;orthogonalLoop=1;jettySize=auto;html=1;exitX=0;exitY=0.5;exitDx=0;exitDy=0;entryX=1;entryY=0.5;entryDx=0;entryDy=0;endArrow=none;endFill=0;" parent="1" source="EnHr0ATX-wRnSWAY3tVp-104" target="doNa7AhgK9Vixs0M9UTE-66" edge="1">
          <mxGeometry relative="1" as="geometry" />
        </mxCell>
        <mxCell id="EnHr0ATX-wRnSWAY3tVp-104" value="CRP" style="ellipse;whiteSpace=wrap;html=1;align=center;fillColor=#f5f5f5;fontColor=#333333;strokeColor=#666666;" parent="1" vertex="1">
          <mxGeometry x="-581" y="425" width="50" height="30" as="geometry" />
        </mxCell>
        <mxCell id="EnHr0ATX-wRnSWAY3tVp-107" value="ID" style="ellipse;whiteSpace=wrap;html=1;align=center;fontStyle=4;fillColor=#f5f5f5;fontColor=#333333;strokeColor=#666666;" parent="1" vertex="1">
          <mxGeometry x="-885" y="696" width="40" height="30" as="geometry" />
        </mxCell>
        <mxCell id="EnHr0ATX-wRnSWAY3tVp-108" value="Finalidade" style="ellipse;whiteSpace=wrap;html=1;align=center;fillColor=#f5f5f5;fontColor=#333333;strokeColor=#666666;" parent="1" vertex="1">
          <mxGeometry x="-940" y="656" width="80" height="30" as="geometry" />
        </mxCell>
        <mxCell id="EnHr0ATX-wRnSWAY3tVp-109" value="Capacidade" style="ellipse;whiteSpace=wrap;html=1;align=center;fillColor=#f5f5f5;fontColor=#333333;strokeColor=#666666;" parent="1" vertex="1">
          <mxGeometry x="-920" y="616" width="90" height="30" as="geometry" />
        </mxCell>
        <mxCell id="EnHr0ATX-wRnSWAY3tVp-120" style="edgeStyle=none;rounded=0;orthogonalLoop=1;jettySize=auto;html=1;exitX=0;exitY=1;exitDx=0;exitDy=0;entryX=0.5;entryY=1;entryDx=0;entryDy=0;endArrow=none;endFill=0;" parent="1" source="EnHr0ATX-wRnSWAY3tVp-113" target="doNa7AhgK9Vixs0M9UTE-64" edge="1">
          <mxGeometry relative="1" as="geometry">
            <mxPoint x="-533.75" y="1180" as="targetPoint" />
          </mxGeometry>
        </mxCell>
        <mxCell id="EnHr0ATX-wRnSWAY3tVp-113" value="ID" style="ellipse;whiteSpace=wrap;html=1;align=center;fontStyle=4;fillColor=#f5f5f5;fontColor=#333333;strokeColor=#666666;" parent="1" vertex="1">
          <mxGeometry x="-673.5" y="1241" width="40" height="30" as="geometry" />
        </mxCell>
        <mxCell id="EnHr0ATX-wRnSWAY3tVp-118" style="edgeStyle=none;rounded=0;orthogonalLoop=1;jettySize=auto;html=1;exitX=1;exitY=1;exitDx=0;exitDy=0;entryX=0.5;entryY=1;entryDx=0;entryDy=0;endArrow=none;endFill=0;" parent="1" source="EnHr0ATX-wRnSWAY3tVp-114" target="doNa7AhgK9Vixs0M9UTE-64" edge="1">
          <mxGeometry relative="1" as="geometry" />
        </mxCell>
        <mxCell id="EnHr0ATX-wRnSWAY3tVp-114" value="Quantidade da dose" style="ellipse;whiteSpace=wrap;html=1;align=center;fillColor=#f5f5f5;fontColor=#333333;strokeColor=#666666;" parent="1" vertex="1">
          <mxGeometry x="-623.5" y="1271" width="130" height="30" as="geometry" />
        </mxCell>
        <mxCell id="EnHr0ATX-wRnSWAY3tVp-119" style="edgeStyle=none;rounded=0;orthogonalLoop=1;jettySize=auto;html=1;exitX=1;exitY=1;exitDx=0;exitDy=0;entryX=0.5;entryY=1;entryDx=0;entryDy=0;endArrow=none;endFill=0;" parent="1" source="EnHr0ATX-wRnSWAY3tVp-117" target="doNa7AhgK9Vixs0M9UTE-64" edge="1">
          <mxGeometry relative="1" as="geometry" />
        </mxCell>
        <mxCell id="EnHr0ATX-wRnSWAY3tVp-117" value="Frequência da dose" style="ellipse;whiteSpace=wrap;html=1;align=center;fillColor=#f5f5f5;fontColor=#333333;strokeColor=#666666;" parent="1" vertex="1">
          <mxGeometry x="-464.5" y="1261" width="130" height="30" as="geometry" />
        </mxCell>
        <mxCell id="EnHr0ATX-wRnSWAY3tVp-128" style="edgeStyle=none;rounded=0;orthogonalLoop=1;jettySize=auto;html=1;exitX=1;exitY=0.5;exitDx=0;exitDy=0;endArrow=none;endFill=0;entryX=0;entryY=0.5;entryDx=0;entryDy=0;" parent="1" source="EnHr0ATX-wRnSWAY3tVp-121" edge="1">
          <mxGeometry relative="1" as="geometry">
            <mxPoint x="-965" y="944.9999999999995" as="targetPoint" />
          </mxGeometry>
        </mxCell>
        <mxCell id="EnHr0ATX-wRnSWAY3tVp-121" value="ID" style="ellipse;whiteSpace=wrap;html=1;align=center;fontStyle=4;fillColor=#f5f5f5;fontColor=#333333;strokeColor=#666666;" parent="1" vertex="1">
          <mxGeometry x="-1223" y="900" width="40" height="30" as="geometry" />
        </mxCell>
        <mxCell id="EnHr0ATX-wRnSWAY3tVp-123" value="Nome" style="ellipse;whiteSpace=wrap;html=1;align=center;fillColor=#f5f5f5;fontColor=#333333;strokeColor=#666666;" parent="1" vertex="1">
          <mxGeometry x="-1208" y="940" width="60" height="30" as="geometry" />
        </mxCell>
        <mxCell id="EnHr0ATX-wRnSWAY3tVp-124" value="Composição" style="ellipse;whiteSpace=wrap;html=1;align=center;fillColor=#f5f5f5;fontColor=#333333;strokeColor=#666666;" parent="1" vertex="1">
          <mxGeometry x="-1178" y="980" width="90" height="30" as="geometry" />
        </mxCell>
        <mxCell id="EnHr0ATX-wRnSWAY3tVp-125" value="Administração" style="ellipse;whiteSpace=wrap;html=1;align=center;fillColor=#f5f5f5;fontColor=#333333;strokeColor=#666666;" parent="1" vertex="1">
          <mxGeometry x="-1118" y="1030" width="100" height="30" as="geometry" />
        </mxCell>
        <mxCell id="EnHr0ATX-wRnSWAY3tVp-126" value="Indicações" style="ellipse;whiteSpace=wrap;html=1;align=center;fillColor=#f5f5f5;fontColor=#333333;strokeColor=#666666;" parent="1" vertex="1">
          <mxGeometry x="-1228" y="864" width="80" height="30" as="geometry" />
        </mxCell>
        <mxCell id="EnHr0ATX-wRnSWAY3tVp-127" value="Contraindicações" style="ellipse;whiteSpace=wrap;html=1;align=center;fillColor=#f5f5f5;fontColor=#333333;strokeColor=#666666;" parent="1" vertex="1">
          <mxGeometry x="-1188" y="830" width="120" height="30" as="geometry" />
        </mxCell>
        <mxCell id="EnHr0ATX-wRnSWAY3tVp-143" style="edgeStyle=none;rounded=0;orthogonalLoop=1;jettySize=auto;html=1;exitX=0;exitY=1;exitDx=0;exitDy=0;entryX=0.75;entryY=0;entryDx=0;entryDy=0;endArrow=none;endFill=0;" parent="1" source="EnHr0ATX-wRnSWAY3tVp-135" target="doNa7AhgK9Vixs0M9UTE-65" edge="1">
          <mxGeometry relative="1" as="geometry">
            <Array as="points">
              <mxPoint x="-380" y="440" />
            </Array>
          </mxGeometry>
        </mxCell>
        <mxCell id="EnHr0ATX-wRnSWAY3tVp-135" value="ID" style="ellipse;whiteSpace=wrap;html=1;align=center;fontStyle=4;fillColor=#f5f5f5;fontColor=#333333;strokeColor=#666666;" parent="1" vertex="1">
          <mxGeometry x="-366" y="415" width="40" height="30" as="geometry" />
        </mxCell>
        <mxCell id="EnHr0ATX-wRnSWAY3tVp-141" style="edgeStyle=none;rounded=0;orthogonalLoop=1;jettySize=auto;html=1;exitX=0;exitY=1;exitDx=0;exitDy=0;entryX=0.75;entryY=0;entryDx=0;entryDy=0;endArrow=none;endFill=0;" parent="1" source="EnHr0ATX-wRnSWAY3tVp-137" target="doNa7AhgK9Vixs0M9UTE-65" edge="1">
          <mxGeometry relative="1" as="geometry" />
        </mxCell>
        <mxCell id="EnHr0ATX-wRnSWAY3tVp-137" value="CRM" style="ellipse;whiteSpace=wrap;html=1;align=center;fillColor=#f5f5f5;fontColor=#333333;strokeColor=#666666;" parent="1" vertex="1">
          <mxGeometry x="-410" y="385" width="50" height="30" as="geometry" />
        </mxCell>
        <mxCell id="EnHr0ATX-wRnSWAY3tVp-15" value="&lt;font color=&quot;#a60303&quot;&gt;Total exclusivo&lt;/font&gt;" style="text;html=1;align=center;verticalAlign=middle;resizable=0;points=[];autosize=1;strokeColor=none;fillColor=none;" parent="1" vertex="1">
          <mxGeometry x="-574.5" y="355" width="100" height="30" as="geometry" />
        </mxCell>
        <mxCell id="EnHr0ATX-wRnSWAY3tVp-162" style="edgeStyle=none;rounded=0;orthogonalLoop=1;jettySize=auto;html=1;exitX=1;exitY=0.5;exitDx=0;exitDy=0;entryX=0.5;entryY=0;entryDx=0;entryDy=0;endArrow=none;endFill=0;" parent="1" source="EnHr0ATX-wRnSWAY3tVp-140" target="doNa7AhgK9Vixs0M9UTE-33" edge="1">
          <mxGeometry relative="1" as="geometry" />
        </mxCell>
        <mxCell id="EnHr0ATX-wRnSWAY3tVp-140" value="ID" style="ellipse;whiteSpace=wrap;html=1;align=center;fontStyle=4;fillColor=#f5f5f5;fontColor=#333333;strokeColor=#666666;" parent="1" vertex="1">
          <mxGeometry x="-209" y="249" width="40" height="30" as="geometry" />
        </mxCell>
        <mxCell id="EnHr0ATX-wRnSWAY3tVp-145" value="Peso" style="ellipse;whiteSpace=wrap;html=1;align=center;fillColor=#f5f5f5;fontColor=#333333;strokeColor=#666666;" parent="1" vertex="1">
          <mxGeometry x="-197" y="210" width="50" height="30" as="geometry" />
        </mxCell>
        <mxCell id="EnHr0ATX-wRnSWAY3tVp-146" value="Estado&lt;br&gt;civil" style="ellipse;whiteSpace=wrap;html=1;align=center;fillColor=#f5f5f5;fontColor=#333333;strokeColor=#666666;" parent="1" vertex="1">
          <mxGeometry x="-177.75" y="165" width="60" height="40" as="geometry" />
        </mxCell>
        <mxCell id="EnHr0ATX-wRnSWAY3tVp-147" value="Profissão" style="ellipse;whiteSpace=wrap;html=1;align=center;fillColor=#f5f5f5;fontColor=#333333;strokeColor=#666666;" parent="1" vertex="1">
          <mxGeometry x="-141" y="130" width="70" height="30" as="geometry" />
        </mxCell>
        <mxCell id="EnHr0ATX-wRnSWAY3tVp-172" style="edgeStyle=none;rounded=0;orthogonalLoop=1;jettySize=auto;html=1;exitX=0.5;exitY=0;exitDx=0;exitDy=0;entryX=1;entryY=1;entryDx=0;entryDy=0;endArrow=none;endFill=0;" parent="1" source="EnHr0ATX-wRnSWAY3tVp-150" target="EnHr0ATX-wRnSWAY3tVp-151" edge="1">
          <mxGeometry relative="1" as="geometry" />
        </mxCell>
        <mxCell id="EnHr0ATX-wRnSWAY3tVp-150" value="Contato de emergência" style="ellipse;whiteSpace=wrap;html=1;align=center;fillColor=#f5f5f5;fontColor=#333333;strokeColor=#666666;" parent="1" vertex="1">
          <mxGeometry x="-60" y="151" width="150" height="30" as="geometry" />
        </mxCell>
        <mxCell id="EnHr0ATX-wRnSWAY3tVp-151" value="Nome" style="ellipse;whiteSpace=wrap;html=1;align=center;fillColor=#f5f5f5;fontColor=#333333;strokeColor=#666666;" parent="1" vertex="1">
          <mxGeometry x="-50" y="80" width="70" height="30" as="geometry" />
        </mxCell>
        <mxCell id="EnHr0ATX-wRnSWAY3tVp-173" style="edgeStyle=none;rounded=0;orthogonalLoop=1;jettySize=auto;html=1;exitX=0;exitY=1;exitDx=0;exitDy=0;entryX=0.5;entryY=0;entryDx=0;entryDy=0;endArrow=none;endFill=0;" parent="1" source="EnHr0ATX-wRnSWAY3tVp-153" target="EnHr0ATX-wRnSWAY3tVp-150" edge="1">
          <mxGeometry relative="1" as="geometry" />
        </mxCell>
        <mxCell id="EnHr0ATX-wRnSWAY3tVp-153" value="Telefone" style="ellipse;whiteSpace=wrap;html=1;align=center;fillColor=#f5f5f5;fontColor=#333333;strokeColor=#666666;" parent="1" vertex="1">
          <mxGeometry x="80" y="85" width="70" height="30" as="geometry" />
        </mxCell>
        <mxCell id="EnHr0ATX-wRnSWAY3tVp-171" style="edgeStyle=none;rounded=0;orthogonalLoop=1;jettySize=auto;html=1;exitX=0.5;exitY=0;exitDx=0;exitDy=0;entryX=1;entryY=0.5;entryDx=0;entryDy=0;endArrow=none;endFill=0;" parent="1" source="EnHr0ATX-wRnSWAY3tVp-154" target="EnHr0ATX-wRnSWAY3tVp-156" edge="1">
          <mxGeometry relative="1" as="geometry" />
        </mxCell>
        <mxCell id="EnHr0ATX-wRnSWAY3tVp-154" value="Data de nascimento" style="ellipse;whiteSpace=wrap;html=1;align=center;fillColor=#f5f5f5;fontColor=#333333;strokeColor=#666666;" parent="1" vertex="1">
          <mxGeometry x="-368" y="160" width="130" height="30" as="geometry" />
        </mxCell>
        <mxCell id="EnHr0ATX-wRnSWAY3tVp-156" value="Idade" style="ellipse;whiteSpace=wrap;html=1;align=center;dashed=1;fillColor=#f5f5f5;fontColor=#333333;strokeColor=#666666;" parent="1" vertex="1">
          <mxGeometry x="-375" y="115" width="50" height="30" as="geometry" />
        </mxCell>
        <mxCell id="EnHr0ATX-wRnSWAY3tVp-159" value="Sexo" style="ellipse;whiteSpace=wrap;html=1;align=center;fillColor=#f5f5f5;fontColor=#333333;strokeColor=#666666;" parent="1" vertex="1">
          <mxGeometry x="-308" y="68" width="70" height="30" as="geometry" />
        </mxCell>
        <mxCell id="EnHr0ATX-wRnSWAY3tVp-160" value="Plâno de saúde" style="ellipse;whiteSpace=wrap;html=1;align=center;fillColor=#f5f5f5;fontColor=#333333;strokeColor=#666666;" parent="1" vertex="1">
          <mxGeometry x="30" y="200" width="70" height="30" as="geometry" />
        </mxCell>
        <mxCell id="EnHr0ATX-wRnSWAY3tVp-161" value="Data da internação" style="ellipse;whiteSpace=wrap;html=1;align=center;fillColor=#f5f5f5;fontColor=#333333;strokeColor=#666666;" parent="1" vertex="1">
          <mxGeometry x="30" y="249" width="70" height="30" as="geometry" />
        </mxCell>
        <mxCell id="EnHr0ATX-wRnSWAY3tVp-180" style="edgeStyle=none;rounded=0;orthogonalLoop=1;jettySize=auto;html=1;exitX=0;exitY=0.5;exitDx=0;exitDy=0;entryX=0.904;entryY=1.005;entryDx=0;entryDy=0;entryPerimeter=0;endArrow=none;endFill=0;" parent="1" source="EnHr0ATX-wRnSWAY3tVp-175" target="doNa7AhgK9Vixs0M9UTE-69" edge="1">
          <mxGeometry relative="1" as="geometry" />
        </mxCell>
        <mxCell id="EnHr0ATX-wRnSWAY3tVp-175" value="Data do início" style="ellipse;whiteSpace=wrap;html=1;align=center;fillColor=#f5f5f5;fontColor=#333333;strokeColor=#666666;" parent="1" vertex="1">
          <mxGeometry x="-343" y="690" width="100" height="30" as="geometry" />
        </mxCell>
        <mxCell id="EnHr0ATX-wRnSWAY3tVp-181" style="edgeStyle=none;rounded=0;orthogonalLoop=1;jettySize=auto;html=1;exitX=0;exitY=0.5;exitDx=0;exitDy=0;entryX=0.755;entryY=0.956;entryDx=0;entryDy=0;entryPerimeter=0;endArrow=none;endFill=0;" parent="1" source="EnHr0ATX-wRnSWAY3tVp-176" target="doNa7AhgK9Vixs0M9UTE-69" edge="1">
          <mxGeometry relative="1" as="geometry" />
        </mxCell>
        <mxCell id="EnHr0ATX-wRnSWAY3tVp-176" value="Previsão de fim" style="ellipse;whiteSpace=wrap;html=1;align=center;fillColor=#f5f5f5;fontColor=#333333;strokeColor=#666666;" parent="1" vertex="1">
          <mxGeometry x="-343" y="730" width="100" height="30" as="geometry" />
        </mxCell>
        <mxCell id="EnHr0ATX-wRnSWAY3tVp-182" value="Categoria" style="ellipse;whiteSpace=wrap;html=1;align=center;fillColor=#f5f5f5;fontColor=#333333;strokeColor=#666666;" parent="1" vertex="1">
          <mxGeometry x="-184" y="505" width="80" height="30" as="geometry" />
        </mxCell>
        <mxCell id="EnHr0ATX-wRnSWAY3tVp-185" value="Sintomas" style="ellipse;whiteSpace=wrap;html=1;align=center;fillColor=#f5f5f5;fontColor=#333333;strokeColor=#666666;" parent="1" vertex="1">
          <mxGeometry x="-141" y="540" width="70" height="30" as="geometry" />
        </mxCell>
        <mxCell id="EnHr0ATX-wRnSWAY3tVp-186" value="Fator de risco" style="ellipse;whiteSpace=wrap;html=1;align=center;fillColor=#f5f5f5;fontColor=#333333;strokeColor=#666666;" parent="1" vertex="1">
          <mxGeometry x="-258" y="599.5" width="100" height="30" as="geometry" />
        </mxCell>
        <mxCell id="EnHr0ATX-wRnSWAY3tVp-187" value="Prevalência" style="ellipse;whiteSpace=wrap;html=1;align=center;fillColor=#f5f5f5;fontColor=#333333;strokeColor=#666666;" parent="1" vertex="1">
          <mxGeometry x="-169" y="575" width="90" height="30" as="geometry" />
        </mxCell>
        <mxCell id="EnHr0ATX-wRnSWAY3tVp-188" value="Nome" style="ellipse;whiteSpace=wrap;html=1;align=center;fillColor=#f5f5f5;fontColor=#333333;strokeColor=#666666;" parent="1" vertex="1">
          <mxGeometry x="-249" y="495" width="60" height="30" as="geometry" />
        </mxCell>
        <mxCell id="EnHr0ATX-wRnSWAY3tVp-189" value="ID" style="ellipse;whiteSpace=wrap;html=1;align=center;fontStyle=4;fillColor=#f5f5f5;fontColor=#333333;strokeColor=#666666;" parent="1" vertex="1">
          <mxGeometry x="-287.75" y="520" width="40" height="30" as="geometry" />
        </mxCell>
        <mxCell id="EnHr0ATX-wRnSWAY3tVp-198" value="ID" style="ellipse;whiteSpace=wrap;html=1;align=center;fontStyle=4;fillColor=#f5f5f5;fontColor=#333333;strokeColor=#666666;" parent="1" vertex="1">
          <mxGeometry x="-224" y="400" width="40" height="30" as="geometry" />
        </mxCell>
        <mxCell id="EnHr0ATX-wRnSWAY3tVp-202" value="Horário" style="ellipse;whiteSpace=wrap;html=1;align=center;fillColor=#f5f5f5;fontColor=#333333;strokeColor=#666666;" parent="1" vertex="1">
          <mxGeometry x="-202.5" y="367" width="50" height="30" as="geometry" />
        </mxCell>
        <mxCell id="EnHr0ATX-wRnSWAY3tVp-205" value="(1,n)" style="text;html=1;align=center;verticalAlign=middle;resizable=0;points=[];autosize=1;strokeColor=none;fillColor=none;" parent="1" vertex="1">
          <mxGeometry x="-773" y="610" width="50" height="30" as="geometry" />
        </mxCell>
        <mxCell id="EnHr0ATX-wRnSWAY3tVp-206" value="(1,1)" style="text;html=1;align=center;verticalAlign=middle;resizable=0;points=[];autosize=1;strokeColor=none;fillColor=none;" parent="1" vertex="1">
          <mxGeometry x="-713" y="434" width="50" height="30" as="geometry" />
        </mxCell>
        <mxCell id="EnHr0ATX-wRnSWAY3tVp-207" value="(0,n)" style="text;html=1;align=center;verticalAlign=middle;resizable=0;points=[];autosize=1;strokeColor=none;fillColor=none;" parent="1" vertex="1">
          <mxGeometry x="-477" y="610" width="50" height="30" as="geometry" />
        </mxCell>
        <mxCell id="EnHr0ATX-wRnSWAY3tVp-208" value="(1,n)" style="text;html=1;align=center;verticalAlign=middle;resizable=0;points=[];autosize=1;strokeColor=none;fillColor=none;" parent="1" vertex="1">
          <mxGeometry x="-478.75" y="750" width="50" height="30" as="geometry" />
        </mxCell>
        <mxCell id="EnHr0ATX-wRnSWAY3tVp-211" value="(1,n)" style="text;html=1;align=center;verticalAlign=middle;resizable=0;points=[];autosize=1;strokeColor=none;fillColor=none;" parent="1" vertex="1">
          <mxGeometry x="-445" y="605" width="50" height="30" as="geometry" />
        </mxCell>
        <mxCell id="EnHr0ATX-wRnSWAY3tVp-213" value="(1,1)" style="text;html=1;align=center;verticalAlign=middle;resizable=0;points=[];autosize=1;strokeColor=none;fillColor=none;" parent="1" vertex="1">
          <mxGeometry x="-380" y="625" width="50" height="30" as="geometry" />
        </mxCell>
        <mxCell id="EnHr0ATX-wRnSWAY3tVp-214" value="(1,n)" style="text;html=1;align=center;verticalAlign=middle;resizable=0;points=[];autosize=1;strokeColor=none;fillColor=none;" parent="1" vertex="1">
          <mxGeometry x="-287.75" y="560" width="50" height="30" as="geometry" />
        </mxCell>
        <mxCell id="EnHr0ATX-wRnSWAY3tVp-215" value="(1,n)" style="text;html=1;align=center;verticalAlign=middle;resizable=0;points=[];autosize=1;strokeColor=none;fillColor=none;" parent="1" vertex="1">
          <mxGeometry x="-411.75" y="610" width="50" height="30" as="geometry" />
        </mxCell>
        <mxCell id="EnHr0ATX-wRnSWAY3tVp-216" value="(1,n)" style="text;html=1;align=center;verticalAlign=middle;resizable=0;points=[];autosize=1;strokeColor=none;fillColor=none;" parent="1" vertex="1">
          <mxGeometry x="-437" y="465" width="50" height="30" as="geometry" />
        </mxCell>
        <mxCell id="EnHr0ATX-wRnSWAY3tVp-217" value="(0,n)" style="text;html=1;align=center;verticalAlign=middle;resizable=0;points=[];autosize=1;strokeColor=none;fillColor=none;" parent="1" vertex="1">
          <mxGeometry x="-624" y="475" width="50" height="30" as="geometry" />
        </mxCell>
        <mxCell id="EnHr0ATX-wRnSWAY3tVp-218" value="" style="edgeStyle=orthogonalEdgeStyle;rounded=0;orthogonalLoop=1;jettySize=auto;html=1;exitX=0.5;exitY=1;exitDx=0;exitDy=0;endArrow=none;endFill=0;entryX=0;entryY=0.25;entryDx=0;entryDy=0;" parent="1" source="doNa7AhgK9Vixs0M9UTE-99" target="doNa7AhgK9Vixs0M9UTE-62" edge="1">
          <mxGeometry relative="1" as="geometry">
            <mxPoint x="-649" y="650" as="sourcePoint" />
            <mxPoint x="-610" y="870" as="targetPoint" />
            <Array as="points">
              <mxPoint x="-649" y="790" />
              <mxPoint x="-500" y="790" />
              <mxPoint x="-500" y="842" />
            </Array>
          </mxGeometry>
        </mxCell>
        <mxCell id="EnHr0ATX-wRnSWAY3tVp-212" value="(1,n)" style="text;html=1;align=center;verticalAlign=middle;resizable=0;points=[];autosize=1;strokeColor=none;fillColor=none;" parent="1" vertex="1">
          <mxGeometry x="-512" y="804" width="50" height="30" as="geometry" />
        </mxCell>
        <mxCell id="EnHr0ATX-wRnSWAY3tVp-220" value="(1,1)" style="text;html=1;align=center;verticalAlign=middle;resizable=0;points=[];autosize=1;strokeColor=none;fillColor=none;" parent="1" vertex="1">
          <mxGeometry x="-129" y="315" width="50" height="30" as="geometry" />
        </mxCell>
        <mxCell id="EnHr0ATX-wRnSWAY3tVp-224" value="(0,n)" style="text;html=1;align=center;verticalAlign=middle;resizable=0;points=[];autosize=1;strokeColor=none;fillColor=none;" parent="1" vertex="1">
          <mxGeometry x="-773" y="670" width="50" height="30" as="geometry" />
        </mxCell>
        <mxCell id="EnHr0ATX-wRnSWAY3tVp-230" value="(0,n)" style="text;html=1;align=center;verticalAlign=middle;resizable=0;points=[];autosize=1;strokeColor=none;fillColor=none;" parent="1" vertex="1">
          <mxGeometry x="-489.5" y="445" width="50" height="30" as="geometry" />
        </mxCell>
        <mxCell id="EnHr0ATX-wRnSWAY3tVp-231" value="(0,n)" style="text;html=1;align=center;verticalAlign=middle;resizable=0;points=[];autosize=1;strokeColor=none;fillColor=none;" parent="1" vertex="1">
          <mxGeometry x="-197" y="455" width="50" height="30" as="geometry" />
        </mxCell>
        <mxCell id="EnHr0ATX-wRnSWAY3tVp-232" value="(1,1)" style="text;html=1;align=center;verticalAlign=middle;resizable=0;points=[];autosize=1;strokeColor=none;fillColor=none;" parent="1" vertex="1">
          <mxGeometry x="-401.75" y="455" width="50" height="30" as="geometry" />
        </mxCell>
        <mxCell id="EnHr0ATX-wRnSWAY3tVp-233" value="(0,n)" style="text;html=1;align=center;verticalAlign=middle;resizable=0;points=[];autosize=1;strokeColor=none;fillColor=none;" parent="1" vertex="1">
          <mxGeometry x="-129" y="415" width="50" height="30" as="geometry" />
        </mxCell>
        <mxCell id="EnHr0ATX-wRnSWAY3tVp-234" value="(0,1)" style="text;html=1;align=center;verticalAlign=middle;resizable=0;points=[];autosize=1;strokeColor=none;fillColor=none;" parent="1" vertex="1">
          <mxGeometry x="-93" y="301" width="50" height="30" as="geometry" />
        </mxCell>
        <mxCell id="EnHr0ATX-wRnSWAY3tVp-236" value="(0,1)" style="text;html=1;align=center;verticalAlign=middle;resizable=0;points=[];autosize=1;strokeColor=none;fillColor=none;" parent="1" vertex="1">
          <mxGeometry x="-371" y="820" width="50" height="30" as="geometry" />
        </mxCell>
        <mxCell id="EnHr0ATX-wRnSWAY3tVp-237" value="(1,1)" style="text;html=1;align=center;verticalAlign=middle;resizable=0;points=[];autosize=1;strokeColor=none;fillColor=none;" parent="1" vertex="1">
          <mxGeometry x="-97.5" y="279" width="50" height="30" as="geometry" />
        </mxCell>
        <mxCell id="EnHr0ATX-wRnSWAY3tVp-238" value="(0,n)" style="text;html=1;align=center;verticalAlign=middle;resizable=0;points=[];autosize=1;strokeColor=none;fillColor=none;" parent="1" vertex="1">
          <mxGeometry x="-524.5" y="840" width="50" height="30" as="geometry" />
        </mxCell>
        <mxCell id="EnHr0ATX-wRnSWAY3tVp-239" value="Horário" style="ellipse;whiteSpace=wrap;html=1;align=center;fillColor=#f5f5f5;fontColor=#333333;strokeColor=#666666;" parent="1" vertex="1">
          <mxGeometry x="-863" y="575" width="90" height="30" as="geometry" />
        </mxCell>
        <mxCell id="EnHr0ATX-wRnSWAY3tVp-246" style="edgeStyle=none;rounded=0;orthogonalLoop=1;jettySize=auto;html=1;exitX=0;exitY=0.5;exitDx=0;exitDy=0;entryX=1;entryY=1;entryDx=0;entryDy=0;endArrow=none;endFill=0;" parent="1" source="EnHr0ATX-wRnSWAY3tVp-241" target="doNa7AhgK9Vixs0M9UTE-62" edge="1">
          <mxGeometry relative="1" as="geometry">
            <mxPoint x="-299.25" y="874" as="targetPoint" />
          </mxGeometry>
        </mxCell>
        <mxCell id="EnHr0ATX-wRnSWAY3tVp-241" value="Descrições" style="ellipse;whiteSpace=wrap;html=1;align=center;fillColor=#f5f5f5;fontColor=#333333;strokeColor=#666666;" parent="1" vertex="1">
          <mxGeometry x="-219.25" y="890" width="80" height="30" as="geometry" />
        </mxCell>
        <mxCell id="EnHr0ATX-wRnSWAY3tVp-245" style="edgeStyle=none;rounded=0;orthogonalLoop=1;jettySize=auto;html=1;exitX=0;exitY=0;exitDx=0;exitDy=0;endArrow=none;endFill=0;" parent="1" source="EnHr0ATX-wRnSWAY3tVp-242" edge="1">
          <mxGeometry relative="1" as="geometry">
            <mxPoint x="-360" y="860" as="targetPoint" />
          </mxGeometry>
        </mxCell>
        <mxCell id="EnHr0ATX-wRnSWAY3tVp-242" value="Data de criação" style="ellipse;whiteSpace=wrap;html=1;align=center;fillColor=#f5f5f5;fontColor=#333333;strokeColor=#666666;" parent="1" vertex="1">
          <mxGeometry x="-257.25" y="930" width="110" height="30" as="geometry" />
        </mxCell>
        <mxCell id="EnHr0ATX-wRnSWAY3tVp-244" style="edgeStyle=none;rounded=0;orthogonalLoop=1;jettySize=auto;html=1;exitX=0.5;exitY=0;exitDx=0;exitDy=0;entryX=1;entryY=1;entryDx=0;entryDy=0;endArrow=none;endFill=0;" parent="1" source="EnHr0ATX-wRnSWAY3tVp-243" target="doNa7AhgK9Vixs0M9UTE-62" edge="1">
          <mxGeometry relative="1" as="geometry">
            <mxPoint x="-299.25" y="874" as="targetPoint" />
          </mxGeometry>
        </mxCell>
        <mxCell id="EnHr0ATX-wRnSWAY3tVp-243" value="ID" style="ellipse;whiteSpace=wrap;html=1;align=center;fontStyle=4;fillColor=#f5f5f5;fontColor=#333333;strokeColor=#666666;" parent="1" vertex="1">
          <mxGeometry x="-311" y="950" width="40" height="30" as="geometry" />
        </mxCell>
        <mxCell id="EnHr0ATX-wRnSWAY3tVp-247" value="(0,n)" style="text;html=1;align=center;verticalAlign=middle;resizable=0;points=[];autosize=1;strokeColor=none;fillColor=none;" parent="1" vertex="1">
          <mxGeometry x="-659.5" y="475" width="50" height="30" as="geometry" />
        </mxCell>
        <mxCell id="EnHr0ATX-wRnSWAY3tVp-250" value="(1,1)" style="text;html=1;align=center;verticalAlign=middle;resizable=0;points=[];autosize=1;strokeColor=none;fillColor=none;" parent="1" vertex="1">
          <mxGeometry x="-430" y="804" width="50" height="30" as="geometry" />
        </mxCell>
        <mxCell id="EnHr0ATX-wRnSWAY3tVp-251" value="(1,n)" style="text;html=1;align=center;verticalAlign=middle;resizable=0;points=[];autosize=1;strokeColor=none;fillColor=none;" parent="1" vertex="1">
          <mxGeometry x="-457" y="660" width="50" height="30" as="geometry" />
        </mxCell>
        <mxCell id="nN6z9SuCUhu9jbKAvrdL-14" style="edgeStyle=orthogonalEdgeStyle;rounded=0;orthogonalLoop=1;jettySize=auto;html=1;exitX=1;exitY=0.5;exitDx=0;exitDy=0;entryX=0;entryY=0.5;entryDx=0;entryDy=0;endArrow=none;endFill=0;" parent="1" source="nN6z9SuCUhu9jbKAvrdL-6" target="NP2jYwV_y3HqBNtfkFvh-1" edge="1">
          <mxGeometry relative="1" as="geometry">
            <mxPoint x="-637" y="945" as="targetPoint" />
          </mxGeometry>
        </mxCell>
        <mxCell id="nN6z9SuCUhu9jbKAvrdL-6" value="Utiliza" style="shape=rhombus;double=1;perimeter=rhombusPerimeter;whiteSpace=wrap;html=1;align=center;fillColor=#ffe6cc;strokeColor=#d79b00;" parent="1" vertex="1">
          <mxGeometry x="-820" y="915" width="120" height="60" as="geometry" />
        </mxCell>
        <mxCell id="nN6z9SuCUhu9jbKAvrdL-10" style="edgeStyle=orthogonalEdgeStyle;rounded=0;orthogonalLoop=1;jettySize=auto;html=1;exitX=0.5;exitY=0;exitDx=0;exitDy=0;entryX=0.5;entryY=1;entryDx=0;entryDy=0;endArrow=none;endFill=0;" parent="1" source="nN6z9SuCUhu9jbKAvrdL-7" target="NP2jYwV_y3HqBNtfkFvh-1" edge="1">
          <mxGeometry relative="1" as="geometry">
            <mxPoint x="-567" y="975" as="targetPoint" />
          </mxGeometry>
        </mxCell>
        <mxCell id="nN6z9SuCUhu9jbKAvrdL-7" value="Tem" style="shape=rhombus;double=1;perimeter=rhombusPerimeter;whiteSpace=wrap;html=1;align=center;fillColor=#ffe6cc;strokeColor=#d79b00;" parent="1" vertex="1">
          <mxGeometry x="-622" y="1015" width="120" height="60" as="geometry" />
        </mxCell>
        <mxCell id="nN6z9SuCUhu9jbKAvrdL-12" style="edgeStyle=orthogonalEdgeStyle;rounded=0;orthogonalLoop=1;jettySize=auto;html=1;exitX=0;exitY=0.5;exitDx=0;exitDy=0;entryX=1;entryY=0.5;entryDx=0;entryDy=0;endArrow=none;endFill=0;" parent="1" source="nN6z9SuCUhu9jbKAvrdL-8" target="NP2jYwV_y3HqBNtfkFvh-1" edge="1">
          <mxGeometry relative="1" as="geometry">
            <mxPoint x="-497" y="945" as="targetPoint" />
          </mxGeometry>
        </mxCell>
        <mxCell id="nN6z9SuCUhu9jbKAvrdL-8" value="Contem" style="shape=rhombus;double=1;perimeter=rhombusPerimeter;whiteSpace=wrap;html=1;align=center;fillColor=#ffe6cc;strokeColor=#d79b00;" parent="1" vertex="1">
          <mxGeometry x="-480" y="915" width="120" height="60" as="geometry" />
        </mxCell>
        <mxCell id="nN6z9SuCUhu9jbKAvrdL-20" style="rounded=0;orthogonalLoop=1;jettySize=auto;html=1;exitX=1;exitY=1;exitDx=0;exitDy=0;entryX=0.5;entryY=0;entryDx=0;entryDy=0;endArrow=none;endFill=0;" parent="1" source="nN6z9SuCUhu9jbKAvrdL-15" target="NP2jYwV_y3HqBNtfkFvh-1" edge="1">
          <mxGeometry relative="1" as="geometry">
            <mxPoint x="-567" y="915" as="targetPoint" />
          </mxGeometry>
        </mxCell>
        <mxCell id="nN6z9SuCUhu9jbKAvrdL-15" value="&lt;span style=&quot;border-bottom: 1px dotted&quot;&gt;ID&lt;/span&gt;" style="ellipse;whiteSpace=wrap;html=1;align=center;fillColor=#f5f5f5;fontColor=#333333;strokeColor=#666666;" parent="1" vertex="1">
          <mxGeometry x="-639" y="870" width="52" height="26" as="geometry" />
        </mxCell>
        <mxCell id="nN6z9SuCUhu9jbKAvrdL-16" value="(1, N)" style="text;html=1;align=center;verticalAlign=middle;resizable=0;points=[];autosize=1;strokeColor=none;fillColor=none;" parent="1" vertex="1">
          <mxGeometry x="-564" y="965" width="50" height="30" as="geometry" />
        </mxCell>
        <mxCell id="nN6z9SuCUhu9jbKAvrdL-19" value="(1,1)" style="text;html=1;align=center;verticalAlign=middle;resizable=0;points=[];autosize=1;strokeColor=none;fillColor=none;" parent="1" vertex="1">
          <mxGeometry x="-575" y="1148" width="50" height="30" as="geometry" />
        </mxCell>
        <mxCell id="nN6z9SuCUhu9jbKAvrdL-21" value="(1,N)" style="text;html=1;align=center;verticalAlign=middle;resizable=0;points=[];autosize=1;strokeColor=none;fillColor=none;" parent="1" vertex="1">
          <mxGeometry x="-659.5" y="945" width="50" height="30" as="geometry" />
        </mxCell>
        <mxCell id="nN6z9SuCUhu9jbKAvrdL-22" value="(1,1)" style="text;html=1;align=center;verticalAlign=middle;resizable=0;points=[];autosize=1;strokeColor=none;fillColor=none;" parent="1" vertex="1">
          <mxGeometry x="-885" y="920" width="50" height="30" as="geometry" />
        </mxCell>
        <mxCell id="nN6z9SuCUhu9jbKAvrdL-23" value="(1,N)" style="text;html=1;align=center;verticalAlign=middle;resizable=0;points=[];autosize=1;strokeColor=none;fillColor=none;" parent="1" vertex="1">
          <mxGeometry x="-516" y="935" width="50" height="30" as="geometry" />
        </mxCell>
        <mxCell id="nN6z9SuCUhu9jbKAvrdL-24" value="(1,1)" style="text;html=1;align=center;verticalAlign=middle;resizable=0;points=[];autosize=1;strokeColor=none;fillColor=none;" parent="1" vertex="1">
          <mxGeometry x="-424.5" y="864" width="50" height="30" as="geometry" />
        </mxCell>
        <mxCell id="NP2jYwV_y3HqBNtfkFvh-1" value="Sugestao" style="shape=ext;margin=3;double=1;whiteSpace=wrap;html=1;align=center;fillColor=#dae8fc;strokeColor=#6c8ebf;" parent="1" vertex="1">
          <mxGeometry x="-612" y="925" width="100" height="40" as="geometry" />
        </mxCell>
      </root>
    </mxGraphModel>
  </diagram>
</mxfile>
